<mxfile host="65bd71144e">
    <diagram id="cu-JNEX-h9Fmbi1ExuER" name="第 1 页">
        <mxGraphModel dx="1009" dy="619" grid="1" gridSize="10" guides="1" tooltips="1" connect="1" arrows="1" fold="1" page="1" pageScale="1" pageWidth="850" pageHeight="1100" math="0" shadow="0">
            <root>
                <mxCell id="0"/>
                <mxCell id="1" parent="0"/>
                <mxCell id="11" value="" style="shape=image;verticalLabelPosition=bottom;labelBackgroundColor=default;verticalAlign=top;aspect=fixed;imageAspect=0;image=data:image/png,iVBORw0KGgoAAAANSUhEUgAAATcAAAFOCAYAAADjD1o7AAAgAElEQVR4nO3de1iU95n4//emuzZJv9ESMIAQFNBWLUFgISe4+ALRYFIjxJy6OVQC0SClil3TUFdlwawxLbsSlxiCkWA9NAdjQE0ilQD1AnOQDIcQZYOAEnBAoMRku7Ve+/3x++N5ZpgZZoYZDjIz3K/r4orzHD8zZG7uz/M8n/vzd4ODg4OM4LSmkR//KHCkzYQQwmH8va0b/tdXrRPZDiGEGFc2B7fr3OZOZDuEEGJc2Rzc5rh/byLbIYQQ4+q6yW6AEEJMBAluQgiXJMFNCOGSJLgJIVySBDen08eZ1AJqSvomuyFWNe4IIq9u6HV/aRrrSh27zcK1TFhw++abAXb++4t8883ARJ1iUgyUHKTSt0D5yWueoLM0o/E9yoUJOvpY9b1/nOAFJQS/+l9m1/eXppHMATJCh5a5J+QQdyLGKODZeDZK04MIDwkaxb5iKrP5URB7/fCHbgD8fk8BP09J1b92bs20p99EQOfjzJ60NniwsCB10s7e8GoJe/0iqcj9nLgOMxv0HCYnK4Ci+kUmKzxI2JzDuvhcGus3EGzrCeuK2Rp4gNp80+MJYd2EBTeAtf/8G3b++4s2B7gLeQW05epe+RDQ+YAaRPo4k3qInmPqqg0xxGbMB201NRED+Jpsd2V1KmHe1dS8BW7NTep+hscDNEepXN5l5lxWaPv46zI3pptpd390KmFhoGRdLbh3PsBsrf1twOAzuOxbQJvh+zXYflr+w0Qmehi0ohmNbxWX1VczjqjtGakNZvS9f5xtHTfCzj9TvtaX7V91knn8ZvadjWbRmkT+A+h73/y+/Z+UQ3aO+eDluYKUlUFU1G0gONTcBuZFBvjYvrEQqgkNbmBfgJudkcrsDPWF5iiVec3MzpgPmo/pmR9DbMF84x28o/DdUEC/BmaHAdpmBghiYRigBXKbuHIkldgCJQB1lvQxO9FD+cIvh4DOVBszMOPAUe/bBEzH8/TjLPQeYVd725CRyuwMgwBpuC7sAWI7la7xGaOT9HEmtQqOpBKrD7AHOXP6cRZaa4MV5TthX6UvxHbS9WYk2/mcrm5Y5GVtrz6qT0DcZsvH9gmIZn9VAxmhtmVi/R1tNm0nhKlrckNhhpsS0EbK3IyuZ+kzGsDbjWm5VVSmVmN6BW92tA+XTyrXvgY+7eCG1VHoz7IsCP8w5Z/T5wzlWwOfdkD+XXZ0LecT1plK7Okgpi0LIqQzldhOGwLbuLbBmj6uHPPBPWyove4bvuWK1nobrFmcu4BFAEt9eXAce4TufgE2btlAXkgQOeTwcoL1QCyEORMe3PYWFXB5YIC1//wb6xtqqzmTDp6nU4ntTCX2iEFXxDuKyM5UYrPgjG+BcZALuwvP5hYu0If2vJ/+SywcU39Hm43dzEVk1DexhS1yl1WMyoQGN5sDm95N/MAboI8zhV3DV3tHEdkZw4xjA3yrX+iB99Lv6C9p5sqc+dhy28LN7yaupn88rncj/9qhfAEv5A11X8fWhu/4i9biShMeXL+si36N+lJbTWfudK63JbMcVx5ELYGKTywHo662k/j72Z6J2Z7pCWFswq656R4BsTmwqdfP2nwLaGM6nvk+cF5ZNVBykPr0oXA2Lf9ho+6c2x1+nInowO10lG3nCnuAkPyD1Osu2Nt6Q8GC2Y8F0RlxiMp0mJYfxIxhnWd72zAf/3wN9REF9ID+hoLx56CcT7lx4MHCrCBqIgqoVNfOOJKqdJttDpC26Xv/OHEbrqivzhK88yy/fDORVWrX1f3OxRBfTGOCmTuiPYfZszeJlPXj2yYhzPk7W4tVBsz98bVoz+hojlJ5cp5yR1FMuv7SNOLbnqV2veHFuj5K02NoT2kyev5tRHW5hFctMTmWECNz7hEKmqPKzYdCN0IksDkM94RdFPGEyQiFLVQsqbIvsAGEJrG59Ql5iFfYzTUyNyGEMOHcmZsQQlggwU0I4ZIkuAkhXNKUDW4DJQcnvWzQwKHvc++M73Pvbyd8FJwQU86UDW6T7cxvv8+/87+8tWeyWyKEa3L6lEEZRO7HDelNysiAZUGEFKjjSw2rbuiWa6upiWjiKqB7EHZoELzJgHXD5+c0R6k86YanmeoaF/IO8pc5N9GTbqlix3ALf/03XgAGDjn9r0AIh+QS36yr6QP4dqYShlL1ol0ThZt3NTWFboR0PoAb6iiHvGZiM6KI7IxSg+K9IwYhI7kdcFqprjFQcpAz+uoa39Jz3E85l7aamoiPuZA4+hEPQoixc4ngNs2gusbsDKWE0EBJB1ePfauWJ1JtGOOJNoTpK4G4JT5OpMGqGbpqJN4e3GDL8CshxIRyieBmiS3dQyGEa3LZGwpud/jBCJU/rp43d7dUV42jGc1yM5VJhBBOwXUzN+8oFhpV3TAovQ24JYYxw7eKytwqhm4oGFbjUCqTXD4/Mc0bOPR9HkvRvfoe9/7b93i4/G+sjpiY8wkx1cjYUiGES3LZbqkQYmqT4CaEcEkS3IQQLkmCmxDCJUlwE0K4JIcKbo07gggPCZKp3IQQY+ZQwS14fRO1ZTmQVUzjZDdGCOHUHCq4AeAZiP9kt0EI4fQcL7jhg39UG+09k90OIYQzc8Dg5kFCfg5sDSJ8R8NkN0YI4aQccGxpH6XpW2BzE7Wek90WIYSzcsDMrYv26gD8JbAJIcbAAYObEEKMneMFt55W2ie7DUIIp+dQ19wadwSRvBcis6sInuzGCCGcmtRzE0K4JMfrlgohxDiQ4CaEcEkS3JxOH2dSC6gpceziAo07gsirG3rdX5omBRHENSXBzU4DJQep9C1QfvKaJ+gszWh8j1qduWvy9PLB+hKCFyg/u80MIukvTSOZA2SEDi1zT8gh7kSMUcCzTR+l6Uq1GPv3FVOZ3FCwSzMa3xbcOyd6NvlrdZ5RaDjJrzoX8B8/nQkNJwn+Gew7G80i3fqew6yLbyOlfsPwO97W1llSl0t41RJq1y8aeVshDDjUoyAX8gpoy9W98iFA/+Xu40zqIXqOqas2xBCbMR+01dREDOBrst2V1amEeVdT8xa4NTep+xkeD9AcpVI/L6nJOku0ffx1mRvTzbS7P1o3baBBYNLa3wYMPoPLumkJde/XYPvhE043o/Gt4rL6Sj+N4UhtMKPv/eNs67gRdv6Z8rW+bP+qk8zjNytBbFE0/6GLM4s8+SXGFQ76PymH7BzzwctzBSkrg6io20BwqLkNzIsM8LF9YyFUDhXcZmekMjtDfaE5SmVeM7Mz5oPmY3rmxxBbMN94B+8ofDcU0K+B2WGAtpkBglgYBmiB3CauHEkltkAJQJ0lfcxO9FC+8MshoDPVxszIOHDU+zYxNNfpCLva24aMVGZnWMjcwh4gtlPpGp8xOkkfZ1Kr4EgqsfoAe5Azpx9nobU2WFG+E/ZV+kJsJ11vRrKdz+nqhkVeBhs19PCfS2+kwqAd1ScgbrPlY/sERLO/qoGMUNsysf6OtpE3EsIMhwpuAyUHqU//dmjBhnnKf73dmJZbRWVzHyEFUbgZ7DM72oe2k80QNp+BTzu4YfXjQ+uXBeGvTsI8fc5QvjXwaQfk32tHl28+YZ1qppgNC03aYNW4tcGaPq4c88G9YKi97huq6NcC3pbbYM3i3AUs4gIs9eXBRfCZ6QbdtfzqZ//D9sporIdJY+5+AWBTvGogL+QJ2rOreDnBnjMIoXCcGwraas6kg+fpVGI7U4k9YtAV8Y4isjOV2Cw441tAZWo1A7p1YXfh2dzCBfrQnvfTf4nFBOqu5VexnSx4cyn3e428uaH+jjYbu5mLyKhvYgtb5C6rGBXHCW4A3MQPvAH6OFPYNXy1dxSRnTHMODbAUH7ngffS7+gvaebKnPk2ZVRufjdxNf3jcb0b+dcO5Qt4IW+o+zq2NnzHX7S2nt2D65d10a9RX2qr6cydzvUjdZlH5b/YHdvJgjcTWTWsZ+lB1BKo+MRyMOpqO4m/n+2ZmLtfwOiaKaY8x+mWqtfP2nwLaGM6nvk+cF5ZZdpdnZb/sFF3zu0OP85EdOB2Osq2c4U9QEj+Qep1F+xtvaFgwezHguiMOERlOkzLD2LGUF45yjbMxz9fQ31EgXK5Xr2hYPw5KOdTbhx4sDAriJqIAirVtTOOpCrXA20OkLZpePUs/wnwsxLlv8Di3Ejl7ingfudiiC+mMcH83dI9e5NIWT++bRLCHNd4FERzlMqT85Q7imLS9ZemEd/2rMnjG32UpsfQntJk9PzbiORREDFKDtYttZPmqPIwbaEbIRLYHIZ7wi6KeMJkhMIWKpZU2RfYAEKT2Nz6hDzEK+zmGpmbEEKYcO7MTQghLJDgJoRwSRLcxAgayAvJpVH/uo/S9DRKZV5Z4eAkuNlhoOTgOJYaGrm6xrXQX5pGeIilOWL7KE1/At4wfKzDg4TNi6mINwx4QjgeCW6TpeEs5YsjaTybSOObN/OfPzvJtY5vjTuCyCGHsuxos+v7S7ewNfDA8DucnivYkt1GskyaLRyY4zzEOwZGD7cuC9KPP7W2vB0//prexFUYqroBJpU61MHxVFMToW6rPjxr08D57lp+9R4s/qqTzOMANw+VBxqhusZ4adwRRAVJ7N9bTGR2Dv5ZW9gflUNZ/gqC1zfxMtBfam5PZRD85s3mny9zT3iWJ0NO0Lh+kUzmIxyS8wc3zVHqj/sR0mkymN1k+UDJQerzmvVB7HL6gFqRoxmNr4Yzj81noXcfZwq/w/N0qknQiiKyM0qtxnGvSamhEezspOvNRBp3QMOrJex9v1f/NL/esOoa5ulmBzP05BsjPxS7vzWAsjeSiH+6nLiyAzwZf4IuwN3aTj0nqWAxWyxOju2Df1Sx3eWLhLhWnD64XTjZxYzVDwwbUzrQ8R3Tlt6lX+52hx/TjvfpB0ZNy79LHerkwfXLdHt58IP539IWUcAVXT20sVKragD4+F0/fL0d1TWC1zdRO4qhS0+mrMCdXFj5LAmekGf/IczwwD8QmWNWOCy55mZidoZSlcT9pFJKXKMZeZ9Rs7O6RuMOpdy24c/kPbXfR3trNP6zJuv8Qljn9MFt+pzpXC6sHjZU3c3vJq4eb9Yvv/BWE1fne9hch212Rioh+dP11T50rp4fr7ul1qprmBe8vonaeuMfu4cz2cozmjjKqbZ4KbCL9uoA/C12W4WYXE7fLXVLfJyA8wVqdVyGbhyEPUDAfNPlI40/Na64q1TqGOosuiWGMcO3isrcKmyuxGvBSNU1roX+0jTis06qr04SvtfwGp5Svij+YAMJZgat95e+xv6Vz5IxbI0QjkHGlgorLFTyGM1EL0JcY07fLRUTyYOE/APwtMkIha3lxJVJYBOOTTI3IYRLksxNCOGSJLgJIVySBLeppOcw69IP0z/Z7Zgk/aVpMpPWFCLBbRzoK2uMy0O1fZSm6x7SHc/KGw3kxZcTt3mFybCrS3z5C2+qj1yy8TjK9hVzlJ/P7Xi/A0dSqPjFe7ZMnzMGDeTpH3I2Ls3knpBD3IkYKVc+RUhwGwfuCbuorW+iaOV4HM2DhPwmausP8OR4HE7VuOMJ2rNzSBjrQ7d1f2AgvoG481ri3svk8oMv6yYpcwj9pa/BG8oDzmXZsHWrYabqQcLmHNqflnJNU4FLBDfDzCncoNtlbXle6WHW6dYZlu6pyzUY3mT4l98wowqyvXtjeLwxdwmttcEwYzFd30DF3iRSzM7cfgs/+DHccOstBstq+fwX7/HlTl2GlsKXuikCQ9cRtVzdNjSSGaaH075HtYWMzu3WYPjxrTaPErHE2u/PPWGX/pk89zsXE2m6s+cKUlYWUyHZm8tz/uBWl0v8icWU6YYk5avdLpPlZUvKiTf4EuzPaiOlXs2Q9r6mBrE+Sve0sblMN7xplz7TadwRQ8WSKnV5lW3dm57DrNsTYLEN9rLWBiUzU9e9kQRROWzRBbO6E+xfucTic2lz1mr5R9NhXO+nMTBHydBCd0LPO7XDd6yr4fJP/YYHOEtC1xG3NtzWra0y//sz1v9JOTWBgcOqn/gERLO/SmrRuTqnD26NVcVq1Qtj/R1tRC6J1i93v3Mxka2t+swpMjtJ/bL74K+fy9kD/8CTbI03vXamDBKPu9NDv13UkmjaO6xnb/2flFNTvYV4NcMYGuo0GqNrw+hl4qtmaG63mgmL2veofrARz00PGmdi3g8Sdd5MsBxn5n9/Bupyic8KoMjM0DGZxX5qcPqxpeNNV1aocUcQ4U/bVi/NmsjsKl422x0cXz4B0dRkxRCeBRDN5rIN1uu1jYX2ParvSuOG97T8ZJRjaydUXS7hT7exuWyX2Wy1v6ONyACfa94scW05febmExDN/j3Dr2W5+wVQc+KkfnnjwS1muyiWBK9voixblxkpGV3FJ0PXsPZlncTfz3rQcr9zMWQVW7l4rV4ns6mraq0NatVcM91pAEKX8OTeE+N0Eb2Wz9XAZjY7s3LNzTJ7PocR9BxmnRrYLN086Wob+XcnnJ/TZ27uCbsoagsiPmSLskAtoe0euoGiQNPlI9UWaiAv5An2618nUVSvfAmC1x/AP0SXGakZmfrlNqqQuzeI/USrX64VbMlOIz4kSH/EkTNB4zbsDynWvyfLbVAreMQHsVV/nGiDL/gi4lY+wZ7SpDFnked3PqBUTXnQW185eNrOhqGbDKOidi1bW+ln0Rgyzj5Kt26hBqgx+CyMPvOew+zZm0TKKIp+CuciY0tdQgN5ISeIM6jS0bgjiD0Bhl3iBvJCXsPfSkYzmRp3BJHMAWrNXCMbPxaqnAiX5PTdUgFKZlZMssFjIMkcMMnSFpFRtpiKrQ42QqFHeaRj4gObMptXxZIqCWxThGRuQgiXJJmbEMIlSXATQrgkCW5CCJc0ZYPbQMlBakoms/zN9zi+8vvcO0P5KTw9iU0RwgVN2eA26U5/j+oH/pc/Xv4bfywf5NDiaZyZ7DYJ4UKc/m7pQMlBzuDHDelNysOluqn9ADRHqVzepWyoW66tpiaiiatGR9FN09eMxrcF984HlNnoNUepPDmP2Iz56r/d8GxuoucYKNP+KdtdyDvIX+bcRE+6cq5p+Q8TmWjPw7J/T+GM64i6fJWFY/s4hBAqpx+hAHA1fQDfzlTCgAt5BbRronDzrqam0I2QzgdwQwmC9XnNxGZEEdkZpQbFe+0LQrkdcDqV2AI1qJb0MTvRA/iWnuN+yrm01dREfMyFRDVA2uL0dRxKHOQRu9+5EMISlwhu0/Lv0geS2RmpzAYGSjq4euzboUmZATaM8UQbwvSTMLslPm5UK2zGajVb9PbgBntqzV78BzYt/jt+dfbqmOucCSGGuERws8T+7uE1dvEf2LTgOvzK/8bSWZPdGCFci8veUHC7ww/SP+aClW2unjd3t/Q7/qIFaEaju143If6eQjWwrY6YwNMIMUW5bubmHcXC/IPU+xbQpi6acSSVsDDl326JYczwraIyt4qhGwrz8c/XUB9RQA/T8cz34fIETRBw5rff4xDA4u8r/wVu3/O/vPDw/5uYEwoxxTj93VIhhDDHZbulQoipTYKbEMIlSXATQrgkCW5CCJckwU0I4ZIcKrg17rBzNnchhLDAoYJb8PomastyRpgOTwghRuZQwQ0Az0D8J7sNQgin53jBDR/8o9po75nsdgghnJkDBjcPEvJzYOs4zUAuhJiSHHBsaR+l6VtgcxO1Djh5sBDCOThg5tZFe3UA/hLYhBBj4IDBTQghxs7xgltPK+2T3QYhhNNzqGtujTuCSN4LkdlVBE92Y4QQTk3quQkhXJLjdUuFEGIcSHATQrgkCW5Op48zqQXUlDh2cYHGHUHk1Q297i9Nk4II4pqS4GangZKDVPoWKD95zRN0lmY0vketztw1aRpOErygRP+z28wgkv7SNJI5QEbo0DL3hBziTsQYBTzb9FGarlSLsX9fMZXJDQW7NKPxbcG9047Z5B36PGPUXcuvYv+HlWejWaRb1nOYdfFtpNRvGH7H29o6S+pyCa9aQu36RSNvK4QBh3oU5EJeAW25ulc+BOi/3H2cST1EzzF11YYYYjPmg7aamogBfE22u7I6lTDvamreArfmJnU/w+MBmqNU6uclNVlnibaPvy5zY7qZdvdH66YNNAhMWvvbgMFncFk3LaHu/RpsP3zC6WY0vlVcVl/ppzEcqQ1m9L1/nG0dN8LOP1O+1pftX3WSefxm9hkGMYCe/6F86Y1sNFjU/0k5ZOeYD16eK0hZGURF3QaCQ81tYF5kgI/tGwuhcqjgNjsjldkZ6gvNUSrzmpmdMR80H9MzP4bYgvnGO3hH4buhgH4NzA4DtM0MEMTCMEAL5DZx5UgqsQVKAOos6WN2oofyhV8OAZ2pNmZGxoGj3reJoblOR9jV3jZkpDI7w0LmFvYAsZ1K1/iM0Un6OJNaBUdSidUH2IOcOf04C621wYrynbCv0hdiO+l6M5LtfE5XNyzyUoJf3IYrwPVsr4xm6Eh9VJ+AuM2Wj+0TEM3+qgYyQm3LxPo72kbeSAgzHOqam9H1LMPZ3r3dmJZbRWVqNQMm+8yO9uHySeXa18CnHdywOgo33cplQfirkzBPnzOUbw182gH5d9nR5ZtPWGcqsaeDmLYsiJDOVGI7bQhs49oGa/q4cswH97Ch9rpv+JYrWuttsGZx7gIlS1vqy4Mmccjjp0tpPJtIY6UH5bHH+aDb9pa6+wXYuGUDeSFB5JDDywnWA7EQ5jhOcNNWcyYdPE+nEtuZSuwRg66IdxSRnanEZsEZ3wLjIBd2F57NLVygD+15P/2XWFwDXrNZvPQKXXbU3uvvaLOxm7mIjPomtrBF7rKKUXGc4AbATfzAG6CPM4Vdw1d7RxHZGcOMYwN8q1/ogffS7+gvaebKnPlDWZsVbn43cTX943G9G/nXDuULeCFvqPs6tjZ8x1+0Flea8OD6ZV30a9SX2mo6c6dzvS2Z5Vh0X6D8+M3crs/sPIhaAhWfWA5GXW0n8fezPROzPdMTwpjjXHNTr5+1+RbQxnQ8833gvLJqoOQg9elD4Wxa/sNG3Tm3O/w4E9GB2+ko284V9gAh+Qep112wt/WGggWzHwuiM+IQlekwLT+IGcM6z/a2YT7++RrqIwroAf0NBePPQTmfcuPAg4VZQdREFFCprp1xJFXpNtscIG0zdL0NYPhNBvc7F0N8MY0J5u+W7tmbRMr68W2TEOa4xqMgmqNUnpyn3FEUk66/NI34tmdNHt/oozQ9hvaUJqPn30Ykj4KIUXKwbqmdNEeVmw+FboRIYHMY7gm7KOIJkxEKW6hYUmVfYAMITWJz6xPyEK+wm2tkbkIIYcK5MzchhLBAgpsQwiVJcBOj4ECVSXoOsy79MP36BQ3kheTSOIlNEo5BgpsdBkoOjt8X2obqGs7oQl4BGs3I29mkLpfwEKUiSLhRANNpIC++nLjNK3DXL1tExhuQbHZ7MZVIcJssi6KVIUxnE2ms9OXsz07iPPHNg4UFqSYD98dbH6V7oKi+idr6KjazhRyTkQqNO56gPTuHBNNpIEM3UBQ4fHsxtTjOQ7xjYPRw67IgQgqU8aXWlrfjx1/Tm7gKQ1U3wKRShzo4nmpqItRt1YdnbRo4313Lr96DxV91knkczD30CpitrjF+TCqq6D4HbTU12bCwwGAsrsGyby1VaLFUmcTwc8vVPUw80sPRDeSFnICVxezfG83m7AC2ZhUTmV3FywkeJORvULfzIGpJNBUm+1bsTSKl3nyADX48B7aepD/BMKsTU4nzBzfNUeqP+xHSGWU89Mpk+UDJQerzmvVB7HL6gFqRoxmNr4Yzj81noXcfZwq/w/N0qknQiiKyM0qtxnGvfRnLzk663kykcQc0vFrC3vd7+Y+fzgSsVdcwTzc7mKEn3xjpoVgly1qovhooOciZkj4iEz24Ad2QMbVkEwNcnT8PN8DNUoUWS5VJ1OXG5Z9sUUx7QBVFK2NIPrGYsjeSiK/qAqNPo4/qEyfxTzFYVneC/SuXkGF6OB3PQPyrX6O6Z8XwzE5MCU4f3C6c7GLG6geGjSkd6PiOaUvv0i93u8OPacf79AOjpukrcnhw/TLdXh78YP63tEUUcOWIPV9QKwyqavj4XW+0yuOnS2n8KWrRx+NQuZT7vSwfKnh9E7WjGLpkXCcPpuWr/zg2wLc00988Heb0gR9Mm6MEENMhb2yYZ/+JbZJESoIH7IAnU1bgTu6wLRp3xLA18AC1dj0A7IO/jaPxhGty+uA23nQ15S7kFVC53KDo40Tyms3ipZ1KdQ0rwW1UmZvmKG25Q93DoYzLg+uXafiLpg+WhnH9+WYu8B03+HkYVWhZ6I06vG2M73GUGncEkdyaQ1m+vcOvumivDiBOsrYpy+lvKEyfM53LhcPrvLn53cTV48365RfeauLqfA+bqoaAEuRC8qfrq33oXD0/AReph1XXMC94fRO19cY/Ng1n0lcPbqZdn40pWeqVk3D9HfP5AR10HjfI1Eaq0GKF6Wc2Wv2laWpgM3PdLHQJT+49YfmRj55W2qMCkBq+U5fTZ25uiY8TcL5ArY7L0AXzsAcImG+6fKTxp8YVd5UL4kPXedwSw5jhW0VlbhU2V+K1YKTqGuMm7C48OaR+Dj545k/nr+qq6XOm05Y+gHsGzI6+ibZccMvCjgothpVJlCWGFVLGVG2l5zA5WSeBk8SHbFEXJlGkn39hEXErn2BPaZLZYpaNB7fAkiq5mTCFydhS4cQayAt5Df+yXcY3DepyCd8TYD7jE1OG03dLxVS2iIyyxVRsNRmh8DQUSWCb8iRzE0K4JMnchBAuSYKbEMIlSXCbSoZV0Jha+kvTZCatKUSC2zjoL03TV68YeynsPkrT1UoY41q6x1wFDYBLfPkLb6qPXLLtMHUvUzHHW//zuR3vd+BIChW/eM+W6XNGzfB3ER6SRqnBtIPuCTnEnYiRcuVThAS3ceCesIva+iaKVo7H0TxIyDEQNkcAACAASURBVG+itv4AT47H4VQWK2jYK3Qdcee1ys/Hu/jrgy/rHoFzCLrfRW19E7VvBLDV6E6qBwmbc2h/Wuq9TQUuEdyM/lobdLusLc8rPcw63bodBsWGDGuIGf3lN8yogmzv3oxYk8we1tqgzNAeHmJuvVpBw+zM7bfwgx/DDbfeYrCsls9/8R5f7tRlaCl8aW6KwO4Orv7UjxmGy7TvUW0ho3O7NRh+fKvNo0Qssfr7M9yuow0CA40zVc8VpKwspkKyN5fn/MGtLpf4E4sp0/211j3fZLK8bEk58QZfgv1ZbaTUqxnS3tfUINZH6Z42NpfphjcNPRzauCOGiiVV6vIq27o3PYdZtyfAYhvsZa0NSmamrnsjCaJy2KILZmoFjWHziKrmrNXyj6bDuN5PY2BOA3HntYTuhJ53avWrBo6kKEHvwUY8Nz1oe7AKXUfc2nA73rFl5n9/isYdStCLzwqgyMyUgD4B0eyvcp7qeWJ0nD64NVYVq9UkjPV3tBG5JFq/3P3OxUS2tuozp8jsJPXLblg9wgP/wJNsjTe9dtZHe2s0cXd66LeLWhJN+whjKPs/KaemegvxIbov21hGn4+uDaOXie9yJZtzu9U4LLot36N2S5cxcJdJVuf9IFHnzQTLcWb+96fQj8F9A5LNXLeUWeynBqcfWzredGWFGncEEf60LfXSrNMVXpxoPgHR1GTFEJ4FEM3msg0T/4S+dyRuP03jSjcwyjG2Eyp0CU/yGu09EGxwrbG/o43IABlS7+qcPnPzCYhm/57h17Lc/QKoOXFSv7zx4BZqTK+/WBG8vomybF1mpGR0FZ8MXcPal3USfz/rQcv9zsWQVWzl4rV6ncymrqq1NvRRfQKz3Wlg5Aoao6WtYeD9TNwNg7+Va26W2fM52KHuBPujFhNlchOlq23k351wfk6fubkn7KKoLWiockSUWiIndANFgabLR6q70UBeyBPs179OokgtYx28/gD+IbrMSM3I1C+1UZ21vUHsJ5rNZbtI8FzBluw04kOC9EccORM0bsP+kGL9e7LcBg+ilkB8fBBb9cfRtQFGqqBhj4EjKdSt/UB9lUnA+XXMGdMRQd+1bG2ln0VjyjiNfhdRZsol9Rxmz94kUkZR9FM4Fxlb6hKUuQji9OWAlC/5ngDDLrGFChoOonFHEMkcoNbMDYDx00dpegztKWO71CCcg9N3SwUomVkxyQaPgSRzwCRLM1dBwwH0KI90THxgg/7SLVQsqZLANkVI5iaEcEmSuQkhXJIENyGES5LgJoRwSVM2uA2UHKSmZBLL35yexr0zvq//KTw9eU0RwhU5/XNuTiviKn/UTbN18R/YtGAaZy5f1c8ML4QYG6cPbsokw37ckN6kTMmnm9oPlMmEl6tzbuqWa6upiWjiKqCbmm5omr5mNL4tuOumo9McpfLkPGIz5qv/dsOzuYmeY2A4bd2FvIP8Zc5N9KQr55qW/zCRiXY8LNv1d3yWOMg/j8snIoQAFwhuAFfTB/DtTCUMZab4dk0Ubt7V1BS6EdL5AG6o823mNRObEUVkZ5QaFO+1LwjldsDpVGIL1KBa0sfsRA/gW3qO+ynn0lZTE/ExFxJHnq9z4ND3eSxF+fevzl4dcykgIcQQlwhu0/Lv0geS2RmpzAYGSjq4euzboUmZATaM8UQbwvSTMLslPk6kwaoZq9Vs0duDG2ysNev28N/448Oo3dLvw9m/sXTWGNsohABcJLhZYnf3cLLM+v+ISryOji5AgpsQ48Jl75a63eEH6R9zwco2V8+bu1v6HX/RAjSj0V2vm2gXr6O6ZJCoiGtzOiGmAtfN3LyjWJh/kHrfAtrURTOOpBIWpvzbLTGMGb5VVOZWMXRDYT7++RrqIwroYTqe+T5cnqAJAgyvt8EgeXKnVIhxJWNLhRAuyWW7pUKIqU2CmxDCJUlwE0K4JAluQgiXJMFNCOGSHCq46SbTtXk2dyGEsMChglvw+iZqy3JGmA5PCCFG5lDBDQDPQPwnuw1CCKfneMENH/yj2mjvmex2CCGcmQMGNw8S8nNg6wTMQC6EmDIccGxpH6XpW2BzE7UOOHmwEMI5OGDm1kV7dQD+EtiEEGPggMFNCCHGzvGCW08r7ZPdBiGE03Ooa26NO4JI3guR2VUET3ZjhBBOTeq5CSFckuN1S4UQYhxIcBNCuCSXCm6NO4LIqxt63V+a5hSD8C23s4G8kFwbx9nas60Qrs85gltdLuEhQfofwwCm01+aRjIHyAgdWuaekEPciRiz21tmPkhMWKCsyyX+xGK2JJhOQdhHafoT8MYGG2+uLCLjDUhOP0z/+LfSLv2lacrvSkaYiEnkHMEtdAO19U3KT1kO7U+bBJ+ew+RkBVC0fpHJjh4kbDazvcNoIO/pNjZvXoG7yZr+0i1sDTQO1iMK3UBR4BZyxiEIN+4YbempBvZlBVBU30TtsN+HENeOwwS3/tI01u3IZV1IEOE7DlOaHkS4uW7WxTZqogLwMdz3k3LITjKf4XiuIGVlMRU2ZG9KPbkn2E8xybpM0Sj7OEme2eV9antNMsuew6zTvxcz76fuBPtXPkvCsNEYfVSfgM2PGweHvvePs/v9Wn61oITgBSUEv/pfw95D8OM5cOLkmLO34PVVxJ2IGV2AM/n9CDEZHCa4AdTshZSyHCL3bqE9pYrNBtVB9F2dYZmOEgji7rQ8s7xPQDT7q0buIgWvb6K2/gBPkqRkHibZR01WOf5l6jZ7X6NUbVvjjhjaU9Tt6w/A02n6dezdol9XtLKYPQbBorGqmCdjzGQ3PSepYDFRZoag/eeG/2Hl2UQazy7glzvb+aDbZAPPQPyry6m2oaqKrjio+S6/Bwn5TaS0xdjXvZSHsIWDcKiHeCOzkwjmJETl8FQoVBusc0/YRW0CSjYUnwZlu8xkPOa5+wWgn5l5TO3LUc/pg3+UbmkDFXth/94g9uu3jGaz7p/qewElyI7V4twFKOHwZnyWmgsjhm2zLnh9E7XrR96maEcQ4ek5lOUP7z4batwRRHLryNsJcS04VHCziWc0cVFbaL8I2Bjc+jvaiAyYyI5SEkX1Zi78T0pNOqXwQJwNn41uRIihJ99oMrrO17gjiGQOUJs/8vWz4PVN1PYcZl36YbZIgBOTzKG6pTbpOUlFdRJx+i+gB1FLoOITy9eGutpO4u9n2m1tUK6fme1y2VMscxFxJt1NWwXHJJnvLntGE4dtXcthelppt/Gal9INN/4ZCmzKdcQ9AVX23RiQSsrCQThFcNNfbwsJIjy+jRSTLMn9zsWW513oOcyevYbBcCSLeCobtsabu3FgXvD6A/hnxQy10dbHMUKXGF27G6IE7K0H7X+UovHgFlgSPeasqXFHDBVLqnh52CMqQjgHlxlb2l+aRnzbsyZZRh+l6crFfrseqbiW6nIJ3xNg5jrVKNpu8VjXUgN5ISeIM9dNF+IacorMzRbuCbso4gmTEQpbqFhS5biBDSB0A2VLys08m+ZBQv4BsPkZvQbynoaiSb/WtYinstuUR2nkIV4xiVwmcxNCCEMuk7kJIYQhCW5CCJckwW0qUZ9Bm+yB9WPXR2l6mpm7zEIMkeA2DgwfVbGvAok5fZbHoo5JA3nx5cQNG6R/iS9/4U31kUvjdJ5aPp/jzedj/hys8SBh82Iq4h21IIJwBBLcxoF7wi517Oh4HE0Z06mMcR0/jTueoF0/fMwFeK5gS3YbyXJHVljgEsHN6CFfg26XteV5pYeVCiSmjywY1Y4z7PoYV/6wuVqG4fHG3CW01oaGoYolw9Y3ULE3iRSzD+Tewg9+DDfceovBslo+/8V7fLnTm4o53lTMSeFLLcbr51jK9vy4/qf3c73XmN6o8n7SD1O6w9zvQuGe8CxP7j0h2Zswy/mDm1rssUw3hEj3nJfJ8rIl5cQbBLH9WW2k1JtW+OijdE8bm8t0w5GGBufrnthXllfZVgSz5zDr9gRYbIO9rLVByczUdW8kQVTOUAHMuhPsX7nE4kO1c9Zq+UfTZwHfT2NgTgNx57WE7oSed2ptbOUt/OSVPfzEexRv0FT1FioClPdUlm1uxIYP/lG2lbMSU4/TB7fGqmKeTDFT7LGjjUiDYUjudy4msrVVnzlF6uu/GVbR8MA/8CRb402vnfXR3hptUFbJg6gl0bR3WM/e+j8pp6Z6C/FqJhWfdXK0b3PUbRi9THyXK9mc262mYTGcfzyvJWr5LcN3G1dD2aa7X4CZ9R74B05wE4TTcr6qIBNMVwaocUcQ4U8Pr5Jhr8jsazM+0ycgmpqsGMKzAKLZXLZhClTlUAK+/+OT3Q7hiJw+c/MJiGb/nuHXstz9AqgxqEjbeHALNYGBNn/hg9c3UZaty4yUjG6o8kgD+7LMVRoxaYO1Af3qcSxXJjFlrQ1q5V4z3WlAHaA/ntemrF1zs0wpjjmedziV8k7+rnKTRIwrp8/c3BN2UdQWRHzIFmVBlFosMXQDRYGmy0cq3dNAXsgTBkUnkyiqVwJY8PoD+IfoMiM1I1MzOqO6aHuD2E80m8t2keC5gi3ZacSHBOmPOHImaNyG/SHF+vdkuQ1KFZH4+CC26o+jawMoZZmeYE9p0qRW+VCKdSrlpILHISD1l77G/pXPkjH2QwkXJGNLXcLwShyNO5RabEPBrIG8kNfwt6OC8biryyX8acwX9rRXz2HWmSl/JYSO03dLBegKZiYbPAaSzAGTLG0RGWWLqdg6GSMU1EdYxiuw0Ufp1nLiyiSwCcskcxNCuCTJ3IQQLkmCmxDCJTlJcJMqEEII+zhUcNNNEjx83KZUgRBC2Mehglvw+iZqy3LMP/gqVSCEEHZwqOAGWJ33UqpACCFs5XjBDR/8oyxNiixVIIQQtnHA4OZBQn4ObDU35lKqQAghbOOAY0v7KE3fApubqB02TEiqQAghbOOAmZu1Sg9SBUIIYRsHDG6WKVUgLFeUFUIIHcfrlva00m52+WFysgIoqh+pbJEQQjhYcNPVRYvMrjLJznRVIHZJ1iaEsIlUBRFCuCSnuuYmhBC2srlber7//01kO4QQYlzZHNz+0f/GiWyHEEKMK+mWCiFckgQ3IYRLkuAmhHBJEtyEEC5JgpsQwiVJcBNCuKQpH9xsGKDhAHp5K3ke/tunepXObj7avIakgqn+OQhbOElwU7/cAcrPttrxO/K3337LK6+8Qnd3t137abYPtWe822RJ7FzfiT8J0HtolfK+7AimvceySXpmjfIzYvDp5qPN2Xxk5SM/W7BGf7wXjhlvONfX2/bjaQrHFgy7P+SFZwo5O/ojWPV53h/w8fkDq0pMSk/Xbld+B8nv0DtB53Z5gzb47PMGWzabOKdfHHz6nUv6f8/xf3Hw83E69DfffDO4du3awXXr1g3+6U9/snEvzeC/+T8z+KZ2qH3j2aZJdfrFwTlPvz14ydL6z18bXPmqZviyTR9Y3mcYzeDvU14bPGNh7aWj/zr8HKM83qWj/zq49ajWzBobGb5f7QeDW+16n9Y0Db486+Dgy593Dx5efXDwZbP/81wafPNpg//PhF0cKHOrY1vyO7ylz4hW8ZbuL3F4JkUPz1T/Hc8q01273yF5jNnT4OAg7777Lq+//joDAwPWN+4+xzkCmeelvvYNJFb9Z++hVSQfqjPINLej0e2n+2tstLyXt5K385aaLW07pLwXXdakzxDN/QU3Op7x+zfKLO3JwM63Ent/DDPNrDtbsIak927ld6mhxss/q2PuHaFG+5wtMMy4TDIrzWk+8r4VD7Mt6Kbx027uud3kHLpMbvOHwz8Hi8dTjjV7ltewNUpGpssOjbM+oyx0V91Qpuh1H8/e8RnPmWsDasZrc6b1E9Z2/RNrw/r4+pgHkWFmNumuoox7iTPTfDEyhyp5RNVGyu4/RXvbTHoPreL24joeyzT+n5zaMnbHBA4PcOPkiy++oKWlhRUrVnDHHXeY36izlcrV8RQB0MtbGzfCb08RBmjOVVFZCPGnWmj36uWt5I20dENY53b8H4V321oIQ/kiPH+ol6KHO2mt2sPuH73NZ7+F23/dyruntkEx0P0OLYtbaE96h+S7W/kaDAJIHdsMjmdIs30exxe30J6pbhdQhiYzdNh2w/VS8UEVc9NMQ1sd+54p5EJiFsWpQ9+0swVreEkXUGuzSSoBvJfzu62hXOzy4q5E3bZaLmq9CVdf9l7UMveO5SYBVAmA+7Tqy11r+AggfDXFid1cvP1VihM/5IVNX9Nn9DlYOp7uvKGEm77x7g954RV49vVXmYkSzF6r7eaeZV70HsvmuU9v53ev38dM9T3WGgTHmcuyeL5zDc8VeFFsEuS/PlcF3Dv8Y7VGc5GXlv0As39+Olup/FG82T80YmSOFdxIIV3N0GbOCYRzJqu73yH50Va2n8o0/oV7PUJR2yPj0oIbb7yRFStWEBERYXGb3vOtUPgo/oXK69jfnlIzy15avoJVb+/mMS+AmTxWtBslALay/dRufYCZOSeQyvJO9VUM25NC+bq4ilVv7+bW6lUwNwa8QpXj1BoGUx1fAmP28FByIJ8VPTL0eXS/Q34hVBbOY7e6aNXbwwOgKc32eTxUGMP2Uy1sNMwUNIUk7dLy1Auv8pRJBrEg9VWKqWPfM6cJf301C/Rr6oyCGd3dXPC+laXqy77ObmbfbpqOeHHP1le5Rxd4tt5n9Du+xwvQfM258AiD81g73vDz6pwtOcI5LTz3zBFlgfdyfrfVCyXTg6d+oTt3HbW1oYSnDn/fzxesIalgtVGAC8tsMV9o1YpLHf8NC2Zxi7mV4Zm8Wz4P/4AU3m3LtOGPkzDkYMHNiu53SL57I3PfblEDx/hbtGgRDz30EDNmzLC63dfnqlj1dgsbw03XdNJalcLSInPLA1lq0G5N+R5WLc6E7nc4tzqNjV51bCtMYWkmfF1exdzFQ1/t3vOtZm4mzOSxohYeU7vklavfpj0zVM0q1X/bISyzhfbF2/E3zZbDVlOcVkjSpkJmGQUw3RtRuoRGAcQkqJwtOcI5n9UGAcOLWYnm29Fb+xnnfMxlYWqGNuxmguXjmT9WNxe7vHjqhSwlYBoxzjDNvjfDLHbZ2P9H/Pr8Fe6fY76DbpyBC3s50DU3a+rYpga24QGFMV9zu+6663jkkUdITk4eMbAp2VkMgeZuXHaf41xMILea3a+VFt11ndrtPFSYwtJw6K3+I8z1Ndh3+PG/PlfF3Dkzofsdth0yuaLj9QhFp7YR+9W5oWs9hv8eD2GrKU6Dl8zcNVS6hMbX27j4Ned8vPRdvpdqTe9weqP09Lr5qMD4+lVf5/DrbYbrZs/ygu4P2Wd0B9Xy8fTn1RSyT3/xs5uLF0d4z90f8sIuk86ippCkZ44w64VX2WQS2JQ7zAbXV23SQ8dZuM3P3IxHdRxX/x8Ro+MUmZtm+6NKF+vRoa7WUFdwbK5cuUJmZiaenjZOqdVdRVlVIOnm/mhbvEYSysa3A/G/ex7KH+GhbobmnJql6fcdnuXdOjeG3Y/OYzcpvNv2CMpNiLvJrNJtEcP2U7uV84Zn8u6P5nF7wEajdbZku/ps0pyw1fwuMZvnCuqMumJmu4RhEdyzq5CkZ4Dw1TwfXmhw3cqbWd51vPTMGkDJoIY+LyWrmjXLfBM8fL34aNcaPiKU51+/b8TjzZzlzbld6rXA8NUUpwJ4cc8vlvPCpjUk6Q4crutehhIeXqgeK5Tn00J56TMlSKMpVG6mvL56HK6BfclOn0Ze0r089gdeWjabutfuHuqeWv1DKWxhc5nxiDCZvcC1KTc/2GZbIFSYu942Bhaut01FvYdW8TzbxuUP+FTlJN1SMfFmEnc/ZN5ty6Mjdex7Zg1JzxRC2jgENt1jGZs+465fTPHApj7ec/sH9/KSBLYxkcxNCOGSJHMTQrgkCW5CCJckwU0I4ZJsfhTk8uXLE9kOIYQYVzYHt5EfbhVCCMch3VIhhEuS4CaEcEkS3IQQLkmCmxDCJUlwE0K4JOcIblbKaY9OD+89q0zM4ePzB3baV6dGCOEEnCO4hWfS3tai/JzaxrlH7a2bZULTyAf3xdHV9U90HfXgpQdO8Pl4tVUI4RAcKLhZmSDGUGcrlaZ1ruwtVhm2hN2Jav22sFk8P7aGCyEckAMFN5QJYuaeor2thc9+C5nFQ6V39HNpPtrK9m2PjF9ZHHWCDikKKIRrcbBKvJYniJn58G7aH0adS2EVGFaXHe0EMdpTrHrgv8mvXWJ+gg4hhNNyrMzNFl4xxMdU0do58qZWaU+xKvwCtx19kAdN5xwRQjg95wtu3VWUVZlMnGH3BDFfsjP8Arcd/SfWynxpQrgkB+uWmtd7aBW3/1o3G8rY53D8PE+dnOOBP+gn6bj/lbihmwxCCKcnZcaFEC7J+bqlQghhAwluQgiXJMFNCOGSJLgJIVySzKEghHBJMoeCEMIlSbdUCOGSJLgJIVySBDchhEuS4CaEcEkS3IQQLskpBs6Pzpfs9GnUD4znuWC6Mn4ymQ0SQlxDLpy5/YS1Xf+kzJPQFUf+2UaZCEaIKcSBgttIcyjUsS1gHsmHekdx7D6+PnY9t0pRSiGmDAcKblidQ2FUtKdY5fMHfHwa+eKVu6XirhBTiINdc7M8hwKEsrGtxb7Ded/N7q67UeYprWAVUpBSiKnCsTK3CeNJ5H3X88H5vsluiBDiGnGi4DaWa2491Hx4heej5W6pEFOFg3VLx5E6u9UH6svnZTIYIaYUmUNBCOGSnKhbKoQQtpPgJoRwSRLchBAuSYKbEMIlSXATQrgkmSBGCOGSZIIYIYRLkm6pEMIlSXATQrgkCW5CCJckwU0I4ZIkuAkhXNKEB7eDBw/y4Ycf2r2fDeP5J1/3OyQHzGNb7WQ3ZJJ1f8gLz6xhn8xRMb7q3yb7xd18oJ3shjinCQ1uBw8e5NNPP2XevHl27/vtt9/yyiuv0N3dPfLGOmqw8df9JL/DaKq/2SeGQN8JPwm6enbD55awvs++Z9aQ9Mwakp7J5qMR96tj3zOFnLW0Wg1iyvFMt/Ni1iyT7TWFJBWYKxXfzUebbWmPZWcL1vDCsTEcYCJpP+LlF9/G1iL53Sd2k/1irvLz5hcma2fgPc7l8btP7B46j/47sx2X+9s0aIPPPm+wZTMjBw4cGFy7du1gS0uL3fsODg4OfvPNN4Nr164dXLdu3eCf/vQnm/a59M4zg3Ne1OheDb759NzBp9+5NKrzOxblvfzbactbnHk1dfD3nxsu0Q6WbzJdNgLtB4NbN30waP4T0wz+PuVfB8u1th/u0tF/Hdx61NwOmsHfp7w2eMaOphnTDpZvGmrL8Pc+yereGvzXPzTavu0r5YN2fKxjpvnD7wb31hkv+/xF6/9/OaMJKVapy9h++ctfMnfuXAAKCgoASE1NtetYg4ODvPvuu3z11Vc89NBDuLm5Wdz263NVxM7dpr6aybwfQRmgZD1lLH0bHnp0DwCxvz1FkTpfQ++hVdz+6yplt5htfFb0CDNrt5N8PpC5v97I7phtbP/RRjILY9h+ajePedWxLeBRdpscR9HLW8l3k6keTn88UP5K3r2RSmWFeixbPoVOWqtSWFpkbp2SbV1IzGKTYTHO7jo+1obykNGyD3lh09c89PpqFoCSWX0WQXFqqNLy2s8457Mcw3ejpznNR9638zuj9irn/giYm5jFpmWGK7tp/LSb2Q+aeYOa03zkfStLzZ6nkKRdupwnlOd1bTU4l36deugFqaupfWYN+9Je5alhBUmV3xVvt7Ax3NwJTdS/TfYpd55NuwcvlCznLRJYt6SH3794ltvugyMfdgDww/Cfs27JLcq7PbGb12qHRvH8MDxmqAVv5nKkXX3hH0/Wz24bWtfcwQ/nxWD0KWk/4uXiOr4B/O/bwM9DdCu+sNoG6t8mW10Ofiz/zaMov9lLfLDr95zWN28GEf/X+DM6XpjC0kwbPh8nMiHBTReAbr75Zv2y3t6xdRC/+OILWlpaWLFiBXfccYeZLXpp+SqG+CT1q1m7nYcKU3i3bSZ0V3GOPTxU/jbtbZlQux3/8k5gphLYPriXz9p2MxPQbJ/H7tpHWHW+lcpftxJ/6m1W3f0oZfef4t3VG2kBeg+dY2lbC6sOreL2c8px9K04tJGy+0/RXmQSIrrfIXkjvNTWwkyUgPp8dS+PPWw2lBirLWN3TCCrTJdrCknapeWpF17lKd23o/tDXth0RD+3zkvPrAHgnrRXeYqvORceoQYL6L2oZa7vUJ+nr7Obe24PNXMOXbCp47lnjgBePPVCFsG13YS//ipLj2XzXKcWjL6iWi5qQwk3U/2496KWuXeYCaK6YPv6akDpetZqYEGYEthIe5XiMPU9vgIe+h1DeeqF5bywKZuPXsjiHqMYe45zwNzhzTCru/eyUbDR9l/Gbf4tQA/QwZFToTz7m0fxqn+b7OYe4BYlsLUE8OxvlIBY92YuX8xUAk7dm7l8MX8DWT8DXXCq4zYwDHjtvye7FpgRyrNp96Btgsd+swHtm7mc7L0E3GLQQvNtoP5tspsXkPWbR4fOWw+hIUpga5n3c7KW3KJvg1FXt/sc52ICudXGz8hZTEhwu++++wDIzs4mKyuLm2++mX/5l38Z0zFvvPFGVqxYQUREhIUtOmmtqmL33fNQ/gCl8G5bJmEAna1Uxmzjs0z1ixueSXs4QB27fx3Iu22P6L9ot86N4dx5NRCvTuMxzpEcs42XHu5kd0AgSzNh5sPK9ppzVaxavNuoFTPnBFL56N1sm2OcKWiKN1JZBbcHbFQWxGzjM9MAaEqX6a1+m/Yi46BztmANL3Ut53evrzYOEl73sen1++g9ls1rPGuUTfUeGx7MZt+uj4pc7DJz3SxsNcWvq4HmdpPMaNl9zATOmguK3d1csJCdGZ9XvwMfvVcH2jqSnlEXha9WgpnmNB/p/o2SYXLHs8Pf9wvwwqZsMAxwXo9QwLEOGwAABUVJREFU1PaImVaYNxTMAC6h/fMMPDwB7SUGmEHEg2pG13uZH7p7ApfQtKBfDl/wRbsft/0M0H7EyXb4pj2XbPWemv99G5Rs6mcbCNVlYvoMS23yknuU4/55BvP+r0Fgs9KGD051wOUOsl8sU08UT1YIoP2CFkJ5TJ/dnaXdfwE/N/rsHuGl+1dxe8Af7ehNOL4Jm0PBXIAbrUWLFvHQQw9ZH9/afY5zhl1AA73nW4m9P2V4pjDsL1YvFR9A/LaZfF0M25NC6a3eBfdvY2Z31bBtW76KITDJ5JjhmbS3ZaLZPg//R3VdT2Vbu//H8XqEorYY3kreyFvdxvsuSH2V5wvW8FyBl75bafDGzHYJjYJK94e8W+vFXYm6Xer4WOvNQ2bbV0dtrRezEs2tMx8ULXdxLR1LyfSGuqEGxzLKMM2/t95j2TxX4s3zr2cN2992BsEMoL6K05dnsNwbqO/nG/87uV9txlAQ/IK+yzO4Tde8+rO0z3DnXoCefr4x6YYaMdx2mB7j4+qPZ6kNht1Qk31uXqDPROuaO/ihe4zRJr2HVvE822hvs6EX4UQm9G7pfffdx9KlS2lpsXO+UdV1113HI488QnJy8sgD9ztbqfzRXLPXi74+V8XcORZ+cVWtfK3+s/fQRjK5lzivOo4XBjLPy2DfYcfvpLVK2ab30PZhdzDDMlt4d3UVrZ36Exn8e3wsSH2V5zF3R9Jcl9AwCNWxb9MRzuHNLMMY4X2r2tWrY5/hMbu7ueB9O8FmA5+Wi1rlOL3HCo3ugOoDkqbQ5DER3Xm7+ajgQ4M72loujnAD9GxBNvuMHo3o5qPNa3iucznFwwKjvTOmKQHF2xvluteHHTDDHW8MsyQYFgT1zVf3MfTnS1h6S0oX+DbMf6yXGFDPXfemcufVehsuox3hkZHuE7uHusJ66h/0KNcKbHANZr/SZXD2unLlCpmZmXh62jaJsqZ8D7FzU8yssZBhgZKO/3YVtweoj6roMr/ud9QsrZcKdd/e6lZi5xo+8+FLYMweHgrYA6vfpv1hlGt56g0LQFkeDjCTx7ZtI/nuefgbrssc9nd2uO4qyriXlyxkfAtSs3hqczb7NAZdRrNdQi+C74DnNq1hH148lbacue8ZXLfy8mK2tlC9pqZkUHoXv+acT4T5Gw14M8u7Trm2F76a4mXK0pmzvDm3K5ukEpTlqWa2V6/dKccN5am00yRtWsM+dUvdTYqZ4bfDJuVYcxNX81TXEZgFukdKLj74qr7LOja3cZt/GUdezOUIfiy/z48jzbfgxSU+aLmM2926LqJhVmVpHyDkUZY35/Lai7o/FDOISFplJvMy97HegtvlMl57sU65aTBCG35+31myi3M5ra7V32gIWYD/h2VKd9U/nuX+ZfrrgQrlj/RSF+mKGpLZrxxd7Xb8y+NtC4Qqc9fbxsLs9TYxRuavt11zo/j/y1m47rylriI8nlWPPop/4cjX7JTrTt3gvZzfbR17YDtbsIaXahm6sC/GwRf8/sUy2jG4uTAZ9I8lpfBum+sFNpDMTQjhomTgvBDCJUlwE0K4JJkgRgjhkmSCGCGES5JuqRDCJUlwE0K4JAluQgiXJMFNCOGSJLgJIVzShAW3/v8eJOvdv9H/304w0YsQwuVMWHBz/z9/B8DOsqsS4IQQ19yEdkuzH/o+IAFOCHHtTfg1NwlwQojJcE1uKNysdlF1XVUhhJhoEx7cXi67yp//e1CfwQkhxLUwocFNApsQYrJM6KMggAQ2IcSkmNBHQdbFT5uowwshhFUyQkEI4ZIkuAkhXNL/D40UUJcf3krBAAAAAElFTkSuQmCC;" vertex="1" parent="1">
                    <mxGeometry x="80" y="40" width="311" height="334" as="geometry"/>
                </mxCell>
                <mxCell id="12" value="" style="shape=image;verticalLabelPosition=bottom;labelBackgroundColor=default;verticalAlign=top;aspect=fixed;imageAspect=0;image=data:image/png,iVBORw0KGgoAAAANSUhEUgAAAVwAAAFvCAYAAAAG+HMvAAAgAElEQVR4nOzdfVhU953w//e2uzZp7+gSMEggIIO2aikCxTzBxQ0EgklNMOapG5OVQDSEUsUubWw2QsGsMS27EJcaooFgozYPxoCaRCqBKReYNJLhIURpFFACASIsMbm7tf72vvn9cc4MM8PMMAPDDIOf13XNpXMev/PAZz7ne875fP9udHR0lCk4qWvje98NmcomhJiSkeEhgoKC3N0MISb0DXc3QAghrhR/7+4GCOEM58+fd3cThJiQBFzh8by8fdzdBCHsIl0KQgjhIk7JcP/8aaczNiOEELOaUwLuN7wWOWMzQggxqzkl4C70/qYzNiOEELOa9OEKIYSLSMAVQggXkYArhBAuIgFXCCFcRALurDLEqYxSGiuH3N0Qm9qKQiluHns+XJXJpqqZ3WYhnMEtAffLL0fY+e/P8uWXI+7Y/bQZqTxAXUCp8ijumKa9dKALOMJMvZF16O1jhC2tJOyFP1ucP1yVSRr7yY4Ym+adUkDC8TiTIGzn3qjKCiUqPHQS6wrhem65tfcf/9ELgN+VlfLP6RmG556tg+6sa9D0PoT76lb5sKw0w217b32hkr2B0dQWfkRCj4UFBg9RkKehvGW52QwfUrYWsCm5kLaWHMLs3WFzBdtC9tNUYr49IWYmt9VS2Pgvv2Tnvz9rd9A9X1xKV6H+mT+a3rvUwDbEqYyDDB5VZ+XEEZ+9BPobaFwxQoDZcpc2ZBDp10Dja+DV0a6uZ7w9QHeEurv7LOzLhv4h/rrKi7kW2j0cm0FkJCjZ6Rm8e+8iqN/xNmD0HlwMKKXL+PUaLT+n5D6iVxvXF+hAF6Dlovps3mG1PRO1wYKht4+xvefbsPO/qNkYwI5Pe9ly7FpeOR3L8idW8x/A0NuW1x3+oAbyCywHVN81pK8LpbY5h7AISwtYFq3xt39hIdzMrcVrHAm6QdkZBGWrT3RHqCvuICh7CejeZ3BJHPGlS0xX8IshIKeUYR0ERQL9HYwQyrJIoB8obOfS4QziS5Wg2Fs5RNBqHyUI3Q2a3gw7M1XTYNYS0A7MxffkQyzzm2BVR9uQnUFQtlHQNp4XeRfxvUq3ximTnQxxKkMLhzOINwT9A5w6+RDLbLXBhpqd8EpdAMT30vdqNDv4iL4BWL7A1lpDNByHhK3Wt+2viWWftpXsCPsy1uGeLruWE2KmcPtJs3leSpCdKMM16R81ZH6AnxdzCrXUZTRg3iMcFOvPxXqlL3XkTz1cvSEGw15WhRIcqfx37sKxvHTkTz1QcosD3QJLiOzNIP5kKHNWhRLem0F8rx3B1qltsGWIS0f98Y4ca693zldc6rfdBlsSC5eyHGBlAPc48WjeO1Bj55KtFIeHUkABz6dIpTDhOdwacPeWl3JxZISN//JL2wv2N3AqC3xPZhDfm0H8YaPDSL8YonsziM+DUwGlpoE38hZ8O85wniH6zwUaAouYmYZ7uuzsIlhOdks7ueTK1Q3Co7gt4NodbA2u4Tt+AEOc2t03frZfDNG9ccw7OsJXhok++K38muHKDi4tXII9p+a8Aq/hctb7Tr0K4K89SlA4XzzW9TC1NnzNX/qtzjTjw1Wr+hjWqU/7G+gtnMtV9mTgTuVDTBLUfmA9QPZ11RMcaH/Gan9GLMTM4JY+XP3lYHYHW7U/tiuglC7m4lviD+eUWSOVB2jJGguxc0ruMzkU97opkFMrevA6GWPfviLvIrzkAC36k1L2njSzIujBUHpXHKQuC+aUhDJvXMeHo21YQnCJjpYVpQyC4aSZ6fug7E85OebDsrxQGleUUqfOnXc4Q+nysDto22fo7WMk5FxSn50mbOdpfvrqatar3Q7eNydCcgVtKRauRBg8RNneVNI3O7dNQswkf+eMQSQ1i77nrPY4n+4IdfWLlTP5wu2GqzJJ7nqcps3Gnb9DVGXF0Z3ebnJ97oSaC4nSJpltS4iZy+0nzaaN7ohygm23F+ESbGcM75RdlLPW7E6zXGqTtI4FW4CIVLZ2rpUbH4THmP0ZrhBCzBCzN8MVQogZRgKuEEK4iARcIYRwEQm4FoxUHnB7icORg9/i9nnf4vZfu/XuayGEE0nAnYFO/fpb/Dv/w2tl7m6JEMKZZnX6pBRyCeTqrHblDq9VoYSXqvUUjKtx6af3N9C4op3LgP7mgbFCNGZFY4yv79Udoa7eC18LVbfOFx/gLwuvYTDLWiWv8Zb94m88A4wcnNUfjxBXnFn/F305a4SA3gwiUaphdeti8PJroHG3F+G9d+GFerdacQfx2TFE98aogfr2CQOjicIeOKlU3RqpPMApQ9Wtrxg8Fqjsq7+BxhXvc3715O9cE0J4rlkfcOcYVd0KylbKHY5U9nD56FdqKUVVzhR3lBNpqBDmtfohoo1mzdNXKfPz4Wp7bu0VQsxKsz7gWmPPob0QQjjTFXnSzOumQJigItjlc5auUtBX6epAd7eFimVCCGHDlZnh+sWwzKQal9GwM4DX6kjmBWipK9QydtLMuEqXUrHs4rnpad7IwW/xYLr+2Te5/d++yX01f2PDiunZnxDCNaSWghBCuMgV2aUghBDuIAFXCCFcRAKuEEK4iARcIYRwEQm4QgjhIh4TcNuKQokKD5VhsYUQHstjAm7Y5naaqgsgr4I2dzdGCCEmwWMCLgC+IQS7uw1CCDFJnhVw8Sc4povuQXe3QwghHOdhAdeHlJIC2BZKVFGruxsjhBAO8bBaCkNUZeXC1naafN3dFiGEcIyHZbh9dDdoCJZgK4TwQB4WcIUQwnN5VsAd7KTb3W0QQohJ8pg+3LaiUNL2QnS+ljB3N0YIISZB6uEKIYSLeFaXghBCeDAJuEII4SIScGeVIU5llNJYObML/LQVhVLcPPZ8uCpTihKJK4IEXCcaqTxAXUCp8ijumKa9dKALOGJzxGH3ucA7mysJW6o89li4GXC4KpM09pMdMTbNO6WAhONxJkHYPkNUZSlV5BxfVwjXk5NmTtOBLuAM3r13ETQr9jMJrfX8rHcp//Gj+dBaT9iP4ZXTsSzXzx88xKbkLtJbcsZfaWJrnjXNhURpk2javHziZYWYATzmsrDzxaV0Feqf+aMxBJwhTmUcZPCoOisnjvjsJdDfQOOKEQLMlru0IYNIvwYaXwOvjnZ1PePtAboj1N3dZ2FfNvQP8ddVXsy10O7hWP0Q7EbBst/xNmD0HlzUD/Guf71Gy88puY/o1T5GrehAF6DlovrMMCT8RG2wYOjtY2zv+Tbs/C9qNgaw49Nethy7Vgmsy2P5D33sW+7LTzGtMjT8QQ3kF1gOqL5rSF8XSm1zDmERlhawLFrjb//CQriZxwTcoOwMgrLVJ7oj1BV3EJS9BHTvM7gkjvjSJaYr+MUQkFPKsA6CIoH+DkYIZVkk0A8UtnPpcAbxpUpQ7K0cImi1jxKE7gZNb4adGaRpMGsJaAfm4nvyIZb5TbCqo23IziAo20qGG3kX8b1Kt8Ypk50McSpDC4cziDcE/QOcOvkQy2y1wYaanfBKXQDE99L3ajQ7+Ii+AVi+wGih1kH+c+W3qTVqR8NxSNhqfdv+mlj2aVvJjrAvYx3u6bJrOSFmCo8JuCOVB2jJ+mpsQs5i5V8/L+YUaqnrGCK8NAYvo3WCYv3pqu+AyCWM/KmHqzc8NDZ/VSjBkcp/5y4cy0tH/tQDJbc7cLi+hMheNaPOh2VmbbDJaW2wZYhLR/3xLh1rr3eOluF+wM96G2xJLFzKcs7DygDuWQ4fmi8w0MTPfvzf7KiLxXboNuUdqAG7YmgrxeFr6c7X8nyKI3sQwr0846RZfwOnssD3ZAbxvRnEHzY6jPSLIbo3g/g8OBVQSl1GAyP6eZG34NtxhvMM0X8u0BBYxDQaaOJn8b0sfXUldy6YeHFjwz1ddnYRLCe7pZ1ccuXqBuFRPCPgAnAN3/EDGOLU7r7xs/1iiO6NY97REcbyYB/8Vn7NcGUHlxYusSvz9Aq8hstZ7zv1KoC/9ihB4XzxWNfD1NrwNX/pt3fvPly1qo9hnfq0v4HewrlcNVF3x6T8mT3xvSx9dTXrx/UK+BCTBLUfWA+QfV31BAfan7F6B2om10wh3MQzuhTU/tiugFK6mItviT+cU2aZdzXMKbnP5FDc66ZATq3owetkjH37iryL8JIDtOhPStl70syKoAdD6V1xkLosmFMSyryx/HuSbVhCcImOlhWlyikp9aSZ6fug7E85OebDsrxQGleUUqfOnXc4Q+lftjto26f1hdP8J8CPK5V/gcTCaOWqBcD75kRIrqAtxfJVCmV7U0nf7Nw2CTGTzP7LwnRHqKtfrJzJF243XJVJctfjZpdyDVGVFUd3ervJ9bkTksvChIfxoC4FB+mOKDcg7PYiXILtjOGdsoty1prdaZZLbZLWsWALEJHK1s61cuOD8BizP8MVQogZYvZmuEIIMcNIwBVCCBeRgCumoJXi8ELaDM+HqMrKpGrQxipCXMEk4DrJSOUBJ5ZFnLjqlisMV2USFR5KVJGlBgxRlbUWXja+xMuHlK2J1CYbB2EhhJ4E3Jmo9TQ1idG0nV5N26vX8p8/rsfVMbetKJQCCqjOj7U4f7gql20h+8dfWeC7htz8LtIsBmkhrmyecePDFJjcELAq1FBvwdb0bgL5a1Y7l2GsGheYVfBSC9TQQOMKdVn1hgO7itcMNPGztyDx0162HAO4dqyU4QRVt5ylrSiUWlLZt7eC6PwCgvNy2RdTQHXJGsI2t/M8MFxlaU2lEM3WrZavf/VOeZyHw4/Ttnm5DPgphJHZHXB1R2g5Fkh4r1lBGbPpI5UHaCnuMATWi1kjaqWuDnQBOk49uIRlfkOc2v01viczzAJpDNG9MWqVrtvNyiJOYGcvfa+upq0IWl+oZO/bFwx3ZRmMq7plmX5UY2MPvzzxjQT7OjVUv5xK8qM1JFTv5+Hk4/QB3rZWGqynlkRyfa0t4E9wTIXDpRaFmO1mdcA9X9/HvA13jauhMNLzNXNW3mKY7nVTIHOODRluup1Tcot6G60PV63Sr+XDd5Z8RdeKUi7p68lOlVptC8A/8Krx8x2ouhW2uZ2mSdwW+3D6GrwphHWPk+ILxY5vwgIfgkOg2ynbEmL2kD5cBwRlK9XKvOuVYXR0uonXmTQHq261FSlDzRg/3Hf31RDdnbEEX++u/QsxM83qgDt34Vwu7m4YVy7GK/AaLh/rMEw//1o7l5f42F3HNig7g/CSuYYqYHqXzznrKgVbVbcsC9vcTlOL6cPhW2Xt5RtLAjU0WO1a7qO7QUOw1S4HIa5Ms7pLwWv1Q2jOlaqjMDB2cizyLjRLzKdPVG/BdGQHpYLX2IG+1+pI5gVoqSvUYveID1ZMVHXLFYarMknOq1ef1RO117hPWCm1mHyglRQLhWOGq15k37rHyR43R4grm9RSEJNkpcLXZAaDFOIKMau7FMR08iGlZD88anan2bYaEqol2AphiWS4QgjhIpLhCiGEi0jAFUIIF5GAKxSDh9iUdYhhd7fDTYarMmUEYDHtJOBOM0PFLafciDBEVZb+xgZnVuRqpTi5hoSta8xu6f2CT37iR8PhL+zcjrJ87ULl8ZEDr3fkcDq1P3nLniE2p6CVYsONIaZlJL1TCkg4HidD9YhpJQF3mnmn7KKppZ3ydc7Ymg8pJe00teznYWdsTtVWtJbu/AJSpnqjQvPvGUluJeFcPwlvbeHiPc/rB1eeEYarXoSXlZtCqvNh2zbjjN6HlK0FdD8qpSXF9Jn1Adc4w4wyOmS2Nb246hCb9POMyww2FxrdOmucIRlnnqH2H5oab2/Kh/O22mCc2ZnPb6V2byrpKZaqNVzHd74HV99wndG0Jj76yVt8slOfyabziX649YhNxNytLhsRzTzzzfW/RYOVzNfrhjD43g123+1nja3Pzztll+GaYe+bE4k2X9l3DenrKqiVLFdMk9kdcJsLST6eSLX+dtcS9ZDZbHp1Ug3JRn+Y+/K6SG9RM8m9L6qBdYiqsi62Vutvnd1lyAjbiuKoTdKq07X2HZoOHmJTmcZqGxxlqw1KBqvOezkVYgrI1QfY5uPsW5dk9brZhRv7+aH5LcJvZzKyUMlkI3bC4BtN41dsbuTijwLHB11rIjaRsDHK3qVtsvz5mRr+oIbGkJBxVdH8NbHs00otXzE9ZnXAbdNWqNWwTA33dBGdFGuY7n1zItGdnYYMMzo/VQ1A/gTH6NfyITiknm3J5n2xSqGWhJt9DMvFJMXS3WM7yx3+oIbGhlyS1Uxs7DbayZhcGyZvCwFqJut1g4VQ3f8WDfe04fv0PaYZq989xJyzEMCdzPLnZ6S5kOQ8DeUWbkv2DtRMb+PEFW1W11JwNn0JxLaiUKIeta/erC3R+Vqet3go71z+mlga8+KIygOIZWt1ju16t1PR/xYNt2Ry9Vv9fH+StSSmVXMhUY92sbV6l8Wsfrini2iNv8ubJa4MszrD9dfEsq9sfN+od6CGxuP1hultB3ItHl5aE7a5nep8fQapZL61H4z1ib6SV09woO1A6n1zIuRV2DhBo/a72tXNYKsN6ugMFrpCAIhI4uG9x510oqiJj9RgazGLtdGHa50j78MEBg+xSQ221k4Q9nVN/NkJMVmzOsP1TtlFeVcoyeG5ygR1+BjviBzKQ8ynT1QHsZXi8LXsMzxPpbxF+cMM27yf4HB9BqlmrmrAMRmJYW8o+4hV/+DXkJufSXJ4qGGLE2fMpm3YF15heE3W26BW9koOZZthO7FGQWc5CevWUlaVOuVs+9zOu5Rqavf4GUaomLOzdexE2qSo3QKdnQyzfAqZ+RBV23JpBBqN3guT93zwEGV7U0mfRCF3IewhtRRmvVaKw4+TYFS9q60olDKNcXdGK8XhLxJsI/Nzp7aiUNLYT5OFPlfnsVL9TAgnmtVdCgKUDLaCNKNLwtLYb5bNLie7OpHabTPsTrNB5fKu6Q+2yijEtUlaCbZiWkmGK4QQLiIZrhBCuIgEXCGEcBEJuEII4SIScC0YqTxAY6U7S/V9k2PrvsXt85TH7pNubIoQwmkk4M5EJ79Jw13/wx8u/o0/1IxyMHEOp9zdJiHElM3qqxRGKg9wikCuzmpXLsjXD5MOoDtC3d19yoL66f0NNK5o57LJVvRDnnegCziDd+9dBOnXr19MfPYS9f9e+Ha0M3gUlCHUleXOFx/gLwuvYTBL2deckvuIXu3IDQZ/z+553yDm4mWWTe3tEEK42ay+0wzgctYIAb0ZRALni0vp1sXg5ddA424vwnvvwgslMLcUdxCfHUN0b4waqG93LDAW9sDJDOJL1UBfOUTQah/gKwaPBSr76m+gccX7nF+tBm17nPwGB1ePcr/Dr1wIMdPM+oA7p+QWQ3ALys4gCBip7OHy0a9oCWgfWzBnijvKiWSZWqzFa/VDJrVW521Qs2o/H652ZEyDz/+BpxP/jp+dvjzlOrFCCPeb9QHXGscP7V3s83/g6aXfILDmb6y83t2NEUI4wxV50szrpkDIep/zNpa5fM7SVQpf85d+gA50+v7fafH37FaD7YYV07gbIYRLXZkZrl8My0oO0BJQSpc6ad7hDCIjlf97rY5kXoCWukItYyfNlhBcoqNlRSmDzMW3xJ+L0zRg16lff5ODAInfUv4Fbiz7H5657/9Ozw6FEC4xq69SEEKImeSK7FIQQgh3kIArhBAuIgFXCCFcRAKuEEK4iARcIYRwEY8JuG1FyvAwm6rcWcVLCCEmz2MCbtjmdpqqCyYYWlwIIWYujwm4APiGEOzuNgghxCR5VsDFn+CYLroH3d0OIYRwnIcFXB9SSgpgWyhRRa3ubowQQjjEw2opDFGVlQtb22nydXdbhBDCMR6W4fbR3aAhWIKtEMIDeVjAFUIIz+VZAXewk253t0EIISbJY/pw24pCSdsL0flawtzdGCGEmASphyuEEC7iWV0KQgjhwSTgCiGEi0jAnVWGOJVRSmPlzC7w01YUSnHz2PPhqkwpSiSuCBJwnWik8gB1AaXKo7hjmvbSgS7giM0Rh92mtZ6wpZWGxx4LNwMOV2WSxn6yI8ameacUkHA8ziQI22eIqiylipzj6wrhenLSzGk60AWcwbv3LoJmxX6maKCJn8X/N+tOx7JcP23wEJuSu0hvyRl/pYmtedY0FxKlTaJp8/KJlxViBvCYy8LOF5fSVah/5o/GEHCGOJVxkMGj6qycOOKzl0B/A40rRggwW+7Shgwi/RpofA28OtrV9Yy3B+iOUHd3n4V92dA/xF9XeTHXQruHY/VDsBsFy37H24DRe3BRP8S7/vUaLT+n5D6iV/sYtaIDXYCWi+ozw5DwE7XBgqG3j7G959uw87+o2RjAjk972XLsWl4xDqwAg/9Nzcpv85TRpOEPaiC/wHJA9V1D+rpQaptzCIuwtIBl0Rp/+xcWws08JuAGZWcQlK0+0R2hrriDoOwloHufwSVxxJcuMV3BL4aAnFKGdRAUCfR3MEIoyyKBfqCwnUuHM4gvVYJib+UQQat9lCB0N2h6M+zMIE2DWUtAOzAX35MPscxvglUdbUN2BkHZVjLcyLuI71W6NU6Z7GSIUxlaOJxBvCHoH+DUyYdYZqsNNtTshFfqAiC+l75Xo9nBR/QNwPIFSkBOyLkEXMWOuljGtjREw3FI2Gp92/6aWPZpW8mOsC9jHe7psms5IWYKj+nDNekfNWR+gJ8Xcwq11GU0MGK2TlCsPxfrlb7UkT/1cPWGGLz0M1eFEhyp/HfuwrG8dORPPVByiwOH60uI7M0g/mQoc1aFEt6bQXyvHcHWqW2wZYhLR/3xjhxrr3fOV1zqt90GWxILlyrZ7MoA7jGLjT4/Wknb6dW01flQE3+Mdwbsb6l3oMbOJVspDg+lgAKeT7H94yDETOIZAbe/gVNZ4Hsyg/jeDOIPGx1G+sUQ3ZtBfB6cCig1DbyRt+DbcYbzDNF/LtAQWIQLLAgiceUl+hyoXTzc02VnF8FyslvaySVXrm4QHsUzAi4A1/AdP4AhTu3uGz/bL4bo3jjmHR3hK8NEH/xWfs1wZQeXFi4Zy25t8Aq8hstZ7zv1KoC/9ihB4XzxWNfD1NrwNX/ptzrTjA9XrepjWKc+7W+gt3AuV9mTgU/FwHlqjl3LjYYM2IeYJKj9wHqA7OuqJzjQ/ozV/oxYiJnBM/pw1f7YroBSupiLb4k/nFNmjVQeoCVrLMTOKbnP5FDc66ZATq3owetkjH37iryL8JIDtOhPStl70syKoAdD6V1xkLosmFMSyrxxHR+OtmEJwSU6WlaUMgiGk2am74OyP+XkmA/L8kJpXFFKnTp33uEMpcvD7qBtn7H+W4DxJ9K8b06E5AraUixfpVC2N5X0zc5tkxAzyey/LEx3hLr6xcqZfOF2w1WZJHc9bnYp1xBVWXF0p7ebXJ87IbksTHgYD+pScJDuiHKCbbcX4RJsZwzvlF2Us9bsTrNcapO0jgVbgIhUtnaulRsfhMeY/RmuEELMELM3wxVCiBlGAq4QQriIBFzhZDOoYtngITZlHWLYMKGV4vBC2tzYJHFlk4DrJCOVB5wXZOyouuWJzheXotNNvJxdmguJClcqhUWZBFW9VoqTa0jYugZvw7TlZL8MaRaXF2L6ScCdiZbHKrfHnl5NW10Ap39cj+fEXB+WlWaYFc9xtiGqyqC8pZ2mFi1byaXA7I6ztqK1dOcXkOJrtmpEDuUh45cXwhU848aHKTC5IWBVKOGlSj0FW9O7CeSvWe1chrFqXGBWwUstUEMDjSvUZdUbDuwqXjPQxM/egsRPe9lyDCzdKABYrLrlPGaV1vTvQ38DjfmwrNSo9oTRtK+sVW6zVrHM+H0r1N+AMdENJa0Uhx+HdRXs2xvL1nwN2/IqiM7X8nyKDyklOepyPsQkxVJrtm7t3lTSWywH/bCHCmBbPcMpxtmvENNvdgdc3RFajgUS3htjeluv2fSRygO0FHcYAuvFrBG1UlcHugAdpx5cwjK/IU7t/hrfkxlmgTSG6N4YtUrX7Y5ldjt76Xt1NW1F0PpCJXvfvsB//Gg+YKvqlmX6UY2NPfzyRDcSKNnoMvXZSOUBTlUOEb3ah6vR346slpdkhMtLFuMFeFmr3GatYpk63bRUpT0q6NZoKV8XR9rxRKpfTiVZ2wcm78YQDcfrCU43mtZ8nH3rksg235yebwjBDS/SMLhmfAYsxDSa1QH3fH0f8zbcNa6GwkjP18xZeYthutdNgcw5NmS46XaOoVKXD1et0q/lw3eWfEXXilIuHXYkaNhgVG3LP/Aqk1k+P1pJ249QC3kfg7qV3LnA+qbCNrfTNInbYk3rDMOcEvU/R0f4ig6GO+bCwiEIhDkLlaBmfjs1OYsd37FdUklP8YEieDh9Dd4UjluirSiObSH7aXLopgl/gu2801sIZ5rVAdfZ9DV5zxeXUne3USHv6bQgiMSVvUrVLRsBd1IZru4IXYVjh/ZjmakPV63S8RfdEKyM5KpzHZzna64O9DGp3LbMD/XW6Sm+xklqKwolrbOA6hJHb+3to7tBQ4Jkt8LFZvVJs7kL53Jx9/g6uV6B13D5WIdh+vnX2rm8xMeuamKgBN7wkrmGKmB6l89Nw4mYcVW3LAvb3E5Ti+nDrltlDaNUdNBtyFqVbP5SPVx10xK+Qw+9x4wy2okqt9lg/p5N1nBVphpsLfTDRiTx8N7j1i//GuykO0aDjBUhXG1WZ7heqx9Cc65UHYWBsZNCkXehWWI+faJ6C6YjOygnfcb6Db1WRzIvQEtdoRa7R3ywYqKqW04TeQu+HFTfB398S+byV3XW3IVz6coawTsbgmKvoasQvPJwoHKbccUyZYpx5bQpVWEbPERBXj1QT3J4rjoxlXLDeGjLSVi3lrKqVIsFytsO5EKSVk6YCZeTWgpilmqlOPxFgqt3mZ4Yay4kqkxjOTMWYprN6i4FcSVbTnZ1IrXbzO40exTKJdgKN5EMVxhy7U8AACAASURBVAghXEQyXCGEcBEJuEII4SIScIViXGWtK8twVaaMACymnQTcaTZclWmoajX1YWCGqMpSK2Q5tcygpcpaAF/wyU/8aDj8hX2baX6e2oV+hsdHDrzekcPp1P7kLXuG2Jw0488iKjyTKqMh3L1TCkg4HidD9YhpJQF3mnmn7KKppZ3ydc7Ymg8pJe00teznYWdsTmW1spajIjaRcK5feby/i7/e87z+Et0ZQf9ZNLW00/Syhm0mVzD4kLK1gO5HpV6umD6zPuCaZDVGh8y2phdXHWKTfl6RUWFE4xqsJhmSceYZav+h6YQ1XR1hqw2tFIeHGrXdeL5aWcvCDQJwHd/5Hlx9w3VG05r46Cdv8clOfSabzieWhlsf6OHyjwKZZzyt/y0arGS+XjeEwfdusPtuP2tsfn7Gy/V0QUiIaUbvu4b0dRXUSpYrpsnsDrjNhSQfT6Ran9Xor780m16dVEOy0R/mvrwu0lvUTHLvi2pgHaKqrIut1fpbZ8cuqG8riqM2SatO19p3aDp4iE1lGqttcJStNigZrDrv5VSIKSBXH2DVylphVra7cGM/PzS/RfjtTEYWtpJwrp+InTD4RpNh1sjhdCUQ39OG79P32B9AIzaRsDHKgVdsneXPT9FWpATi5DwN5RaGV/fXxLJP6znVh4VnmdUBt01boVaZMjXc00V0UqxhuvfNiUR3dhoyzOj8VDUAGVeV8iE4pJ5tyeZ9sUN0d8aScLOPYbmYpFi6J6gZMPxBDY0NuSSH6wPAVCrATK4Nk7eFgLuVrNfrBtNQ7XV3mdqlsIqRW8yyX797iDlnIYA7meXPT2GoOfEypFnoB/cO1Exv48QVbVbXUnA2fQnEtqJQoh61p96sbfpi2tPNXxNLY14cUXkAsWytzpn+O638ovH6USaXBoBJ1pSYVhFJPMyLdA9CmFHf9XBPF9EaKWsjpsesznD9NbHsKxvfN+odqKHxeL1hetuBXBrN+/NsCNvcTnW+PoNUMt/aD8b6RF/Jqyc40HYg9b45EfIqbJygUftd7epmsNWGIRqOY7ErBJi4stZk9Tcy8vYWvI1/kGz04VrnyPvggObj7ItJJMbsRGFf18SfnRCTNaszXO+UXZR3hY5VlIpRy/lF5FAeYj59onpcrRSHr2Wf4Xkq5eoQLmGb9xMcrs8g1cxVDTQmdWr3hrKPWLZW7yLFdw25+Zkkh4catjhxxmzahn3hFYbXZL0NPsQkQXJyKNsM29G3ASaqrOWIkcPpNG98R322Bc25TSyc0hbB0C3Q2ckwy6eUmZt8FjEWSjsOHqJsbyrpkyjkLoQ9pJbCrKeMDZZgKF2oBJ4yjXF3hpXKWjNEW1EoaeynycJJLucZoiorju70qXUTCWHLrO5SEKBksBWkGV0SlsZ+s2zWUmWtGWBQubxr+oMtDFflUpuklWArppVkuEII4SKS4QohhItIwBVCCBeRgCuEEC4iAdeCkcoDNFa6sVTfyTncPu9bhsfuk+5rihDCeWb1dbgea8Vl/qAfHvjzf+DppXM4dfEyy9zaKCHEVM3qgDtSeYBTBHJ1VrsyvLl+mHQA3RHq7u5TFtRP72+gcUU7lwH9MN9jQ553oAs4g7d+aG/dEerqFxOfvUT9vxe+He0MHgXjIcDPFx/gLwuvYTBL2deckvuIXu3ADQZ9f8eHq0f5F6e8I0IId5rVARfgctYIAb0ZRALni0vp1sXg5ddA424vwnvvwgslMLcUdxCfHUN0b4waqG93LDAW9sDJDOJL1UBfOUTQah/gKwaPBSr76m+gccX7nF+tBm0bRg5+iwfTlf//7PTlKZctFEK436wPuHNKbjEEt6DsDIKAkcoeLh/9ipaA9rEFc6a4o5xIlqlFWrxWP0S00ax5G9Ss2s+Hq+0c08Drvr/xh/tQuxS+Baf/xsrrp9hGIYRbzfqAa43Dh/bucv3/I2b1N+jpAyTgCuHRrsirFLxuCoSs9zlvY5nL5yxdpfA1f+kH6ECn7/+dbp9/g4bKUWJWuGZ3Qojpc2VmuH4xLCs5QEtAKV3qpHmHM4iMVP7vtTqSeQFa6gq1jJ00W0JwiY6WFaUMMhffEn8uTtOAXcb9tzBKsVyhIMSsILUUhBDCRa7ILgUhhHAHCbhCCOEiEnCFEMJFJOAKIYSLSMAVQggX8ZiA21akDA+zqcqNVbyEEGIKPCbghm1up6m6YIKhxYUQYubymIALgG8Iwe5ugxBCTJJnBVz8CY7ponvQ3e0QQgjHeVjA9SGlpAC2hRJV1OruxgghhEM8rJbCEFVZubC1nSZfd7dFCCEc42EZbh/dDRqCJdgKITyQhwVcIYTwXJ4VcAc76XZ3G4QQYpI8pg+3rSiUtL0Qna8lzN2NEUKISZB6uEII4SKe1aUghBAeTAKuEEK4yBUTcNuKQiluHns+XJXpEYVwrLezleLwQjvrSjiyrBBiunh+wG0uJCo81PAwDqp6w1WZpLGf7Iixad4pBSQcj7O4vHWWA9e0Be/mQpKPJ5KbYj6c+xBVWWvh5Rw7TyAuJ/tlSMs6xLDzW+mQ4apM5bOSOwXFFcjzA25EDk0t7cqjuoDuR80C4uAhCvI0lG9ebraiDylbLSw/Y7RS/GgXW7euwdtsznBVLttCTH9AJhSRQ3lILgVO+GFoK5psmcxWXsnTUN7STtO4z0OI2c8jAu5wVSabigrZFB5KVNEhqrJCibJ0iPx5F40xGvyN1/2gBvJTLWeCvmtIX1dBrR1ZrlKPdy37qCBNn1GbZGn1FFucPqS21ywDHzzEJsNrsfB6mo+zb93jpIy7q26IhuOw9SHTgDX09jH2vN3Ez5ZWEra0krAX/jzuNYQ9VADH66ec5YZt1pJwPG5yQdfs8xHiSuIRARegcS+kVxcQvTeX7nQtW42qhhkOU8dlhEpwSrjZ/JB8jL8mln3aiQ9vwza309Syn4dJVTI0syytMa+G4Gp1mb0vUqW2ra0oju50dfmW/fBopmEee3MN88rXVVBmFMDatBU8HGchCxysp5ZEYizc3vyfOf/NutOraTu9lJ/u7OadAbMFfEMIbqihwY5qa/qC75a7a3xIKWknvSvOsa4BuXFFXOE85saH6PxUwqiHmAIeiYAGo3neKbtoSkHJGpMzoXqXhczQMu9ADXQ5o30F6j79CY7RT22ldi/s2xvKPsOSsWzV/1d9LaAE/qlKLFyKEqKvxX+lpdBm3Dbbwja307R54mXKi0KJyiqgumR814extqJQ0jonXk6I2cxjAq5dfGNJiMml+3PAzoA73NNFtGY6D3JTKW+xcHLLLTV9leI/CXa8N/o7+4w9/HK7Sb9xW1EoaeynqWTi/tiwze00DR5iU9YhciXoiiuUx3Qp2GWwntqGVBIMQcGHmCSo/cB6X2NfVz3BgeZdDq1Kf6zFw2VHCqAvJ8Gsq8BeYXGplrs6fGNJwL5ugXEGO+m2sw9V6UIxfYwFW6Vfukyjdezkl4zYIa5wHh9wDf234aFEJXeRbpZNet+caH0ctMFDlO01DtATWc4j+bAt2dLJMcvCNu8nOC9urI32XpoVkWTSFzxG+RHZdsDxy6raDuRCUuyUs8u2ojhqk7Q8P+5yNSGELVdELYXhqkySux43y8aGqMpSTmg5dHmVKzUXElWmsdDvOYm2W92WK7VSHH6cBEtdLEJcATw+w7WHd8ouyllrdqdZLrVJ2pkbbAEicqhOqrFw7awPKSX7we5riFspfhTK3d53upxH8ruUy+rkxgdxBboiMlwhhJgJrogMVwghZgIJuEII4SIScIVCvUbW3cVtpm6IqqxMC1d3COF+EnCnmfFla45VJrNkyHrthSlppTi5hoRxhXK+4JOf+NFw+Asn7aeJjxb68dGU3wdbfEjZmkht8kwtSiSuZBJwp5l3yi61VoIztqbUMFBqOjhPW9Faug23Js8CvmvIze8iTa6EEDPMrA+4JjdGGB0y25peXHVIqUxmfvmSSe1d48NW04pgdlfRMt7elA/nbbWhdayS2bj5rdTuTSXd4k0M1/Gd78HVN1xnNK2Jj37yFp/s9KN2oR+1C9P5pB/T+QutZcWBXPWjO7lqwZReqPJ6sg5RVWTps1B4pzzOw3uPS5YrZpTZHXDVAt7V+ttT9dehmk2vTqoh2Siw7svrIr3FvPLXEFVlXWyt1t/qOlYgR3/nlTJda19h88FDbCrTWG2Do2y1Qclg1Xkvp0JMwVhR8+bj7FuXZPVGhIUb+/mh+bXKb2cysrCVhHP9ROyEwTea7GzldXz/t2V8328SL9BcQy61GuU1VedbuvPOn+AY+0pvCuEqszrgtmkreDjdQgHvni6ijW5x9b45kejOTkOGGW2on2tcXcuH4JB6tiWb98UO0d0Za1QC0oeYpFi6e2xnucMf1NDYkEuymnEm59VP9mVOug2Tt4WAu5Ws1+sG81AdxQ/P9RNz93XjV3OqsazcO1BjYb4PwSHT3AQhHDS7qoVNM33JwraiUKIeHV89y1HR+a6pR+CviaUxL46oPIBYtlbnXAHVupQfoeCH3N0OIcbM6gzXXxPLvrLxfaPegRoajUY+aDuQS2NIiN1BKGxzO9X5+gxSyXzHKpK18kqepQpkZm2wVVRH3Y71imXmbLVBHSHCQlcIoBbJcWZfp60+XOuUgufOvLJAKUUZPFtOBIpZYVZnuN4puyjvCiU5PFeZEKMWwI7IoTzEfPpEZQZbKQ5fa1RIPJXyFiWohm3eT3C4PoNUM1c18zWpK7s3lH3EsrV6Fym+a8jNzyQ5PNSwxYkzZtM27AuvMLwm621QqoslJ4eyzbAdfRtAKSG5lrKqVLdW/1IKsCulL8OcECSHq15k37rHyZ76poRwGqmlMOuNr9DVVqTUsh0LsK0Uh79IsAMjZThdcyFRj2K5WLujBg+xyUKpTiHcbVZ3KQjQF0FPM7okLI39ZtnscrKrE6nd5o47zdTL2ZwVbBmialsNCdUSbMXMIxmuEEK4iGS4QgjhIhJwhRDCRWZBwJXqUEIIz+AxAbetyFqdAqkOJYTwDB4TcMM2t9NUXWD5ZgGpDiWE8AAeE3AB8A0h2MosqQ4lhJjpPCvg4k9wjHI3kuV5Uh1KCDFzeVjA9SGlpAC2WaoxINWhhBAzm4fVUhiiKisXtrbTNO4WVKkOJYSY2Twsw7VVAUqqQwkhZjYPC7jWKdWhrI9cIIQQ7uZZXQqDnXRbnH6IgjwN5S0TlVgUQgj38ZiAq68rG52vNcti9dWhdkl2K4SY0aRamBBCuMis6cMVQoiZTgKuEEK4iARci5RRCMYXyhGmWim2e+BHR5Z1o8FDbMpyx8gXYhxHPovmQqsDrg5XZc6Yv2UPCbjqCLaGh5RjdMRwVabhvSt22q3PQ1RlrYWXLQxlc3IOt8/7Fk8f/KbRxOVkvwxpDgYzy38s0xW8WylOriFh65pZPYy8c78P6hBJ4c4eddnBzyIih3LWWgys3ikFJByPc+J3f/I8JOCCMkquMtR3dT5sm9bxt3xIKWl36yi2zuSdsoumlnbK1zlvm8NVuWwL2W9hlOG/Z3fi33Hfv1pYKSKH8pBcCmZItmGurWgt3fkFUx9Ic/AQm2ZwNu/c74Pyt9LUsp+HnbE51WQ+i7DN+wnOy7WQjPmQsrWA7kfd/5l4UMAd431zItENXfSBeihxyMqvrGlmrP+FaysKpbioUK2ve0hZRp95NRcalh/3a2k0zzzL1tfrtVyz1xIlS6uykm1Y3Z7VNhhnGva1oa3IbDmzQzjrr2mIhuOw9aHx1z2f+vU36Sn7H+7XWN5n2EMFcLx+4h/LwUNsCg8lOa+exrw4i+95t+G9s++zaCvKpKrK2ufbSu3eVNJNfmQv8M7mSsJe+LP6/M/sWVrJz96+YLvtvmt4/mVIsxJ0jTPMKKP329b04irl/YgKN6sj4sTvw7jtTblrxVYbzI9ajedb+izUbRleu7K+6TaX80g+1H5g4bX6riF9nfuLW3lkwB3+oIZG47vK9tYo9RVa2qnO76KsaoixQ15lelPLfnh07Au5r1ND9cupNObVEFy9n4f1ATwiR91OrNleh6gq62JrtX57Y0OKD1dlUqbRqtO1Dhy+VFBLgbJedQHdZcoX3Pr2rLehrSiO2iTH2mAe/IY/qIGkWLwnek2D9dSSSIx59nFyDtmf/D/+5b7/a32nviEEN9TQMFGXkO8anlc/h+h87bjXCxVs63p87IjngPKHaPuzqGfbcQ3VLRZqKzcft3Cn4nzuLIpmx6fdvDMAQ293c7owmv/40XzDD4JxwDAJUBE5NFVrKDPv/mouJPl4otKGlnaaStRDZrPp1Uk1JBsF1n15XaSr3+OH976obtO53wcGD7GpTGO1DY6y1QYlg1XnvZwKMQXk6gOsxc/Ch5QSLVs7ldc+XPUi3fnacUeh3oEaGq38oPtrYtmndW/NbA8KuGNDfScfT6R6s1F2te5xwxfNO2WX+iH00d2QSoLhkHc5Cevq6f5cefZwuvpFN1rXNh+CQ+rZlmze7zVEw3HjLCyObQ32viajX3HfNTxfsgZvm9uz3obuzlgSbvYxLBeTFEt3zwRZjW8sCeiDn5K1KtuYzGtSuhJ+9uz/h5fN5fwJjploW/ZIpVz9DngH6tPpidtt+Nxt1FY2NZ87n/ShJr6ShBofnvrRfGWy+oPQZPwoMetv9F3D89WJ1Bp9Xm3airE2GBnu6SJa/bED9Sius9MQOKLzU9UAZPz+Off7MPxBDY0NuSTr/87y6u16hyyb5HfSJv3oLkoMyLXU5Xe9hmgra499T9zHY+40U/pwLZygcaGwze00bVYPWR+Fh19uV/swY9lavWvqfX8G1rdnvQ2T4UNKuoZNHwyRcnM9tSGP87xhnw6+ppPf4CDA0m/xH4aJf8/tR77Ba3uNg7BSZChh2ooMOfuzUG28lp9+avR88BCbknNpNF4mpoBq46A7eIhNyTUkVLc7vz0q534flDs5XXHuwl8Tq/ww5oHymeXYf6JyXSoPd1qZ93kXjSFJFrc13NNFtMZ/Ms11Gg/KcB1lVpB88BBle2MJvn7qWw7brBzqKr/WPsQkjR3SWqQeftrXj2bH9iy0ITik3qjvqpVX8uoJDrTjDyciieDj9bR9UENwnP6oYYI2mGTGqhWX+cPFvxker5XBjWX/wx/2mmW8g510x2gw/9or/a6W+zwbu/omfh32tNuWiCQrI4b8mT3xQyTeE8s9iUMk6PtzJ8pwmwuJSu4ivcU0+PtrYtlXNr5v1PxQuO1ALo0hIXYHIWd8H7xvTrQ8hJWB2u9qVzeDrTao5wAsdIUANj4L9cqFh3J4xEp3h62g2tdl59/ENPKgDNdRypnJTcmhRKlTHn5ZyTRsnakcrso0OpRSfoGVrKGV4vC17DMsmUp5i/LheacUsDUrjqhw43mTz8atb896G8I27yc4XJ8xqJmKmuno61AAsDeUfSZZ4HISQtaSlpdKeYs9bQB9YEs+0ErKZscKBrUdyIUkrd2BxDvlcR4OX0vUXrAne538Z7GchHVrKatKNcrwLvDO5tOcLoxm/QLgRz9kx+ZGwl6Atids3M4+eIhNj2Jxv94puyjvCiU5PFeZoM+KI3IoDzGfPtF76+zvwxpy8zNJDg81bHHijNm0DfvCKwyvyXob1O9PcijbDNsx+06O+yyUczLd+VqyfQH951y0nybDd7CVV/IgodpCUB08RNneVNI323ot009qKYhJGqIqK47udAcOYZsLiSrTmB52zyitFIe/SPB0dEkII60Uhx8nwegHqa0olDKNcXeG45/F+G3oTeK7Ok1mcZeCmF4+pJTsB7uvbWyl+FEon7HBFmA52dWJ1E7rNd5CyWDHToJHhYeSxn6zQOngZ9FcaGEbiuGqXGqTtG4PtiAZrhBCuIxkuEII4SJOOWl2btjGhe5CCCEAJwXcHwZ/2xmbEUKIWU26FIQQwkUk4AohhItIwBVCCBeRgCuEEC4iAVcIIVxEAq4QQriIBFwbpngTnotc4LW0xQTvmAEDNrnVAO9tfYLU0iv9fRAz2SwIuGrA0SiP7U3O2/JXX33Fb3/7WwYGBhxaT7djrD3ObpM18YsCpn8nwIWD65XX5UCAv3A0n9THnlAeEwbEAd7bms97Nt7y06VPGLb3zFHTBRcF+Nm/Pd3uqQXogXd55rHdnJ78Fmz6qPj3+Pv/nvWVZsNjNO1QPoO0N5hgsB8x04xO0YcftU51E1Nz8tnRR9/4wvD/hcHPjn7kpE1/+eWXoxs3bhzdtGnT6B//+Ec719KN/lvwY6Ov9o+1z5ltcquTz44ufPT10S+szf/oxdF1L+jGT3v6HevrjKMb/V36i6OnrMz94sivxu9jktv74sivRrcd6bcwx07Gr7f/ndFtDr1OW9pHn7/+wOjzHw2MHtpwYPR5i1+eL0ZffdToeyY8godkuM1sT3uD1wyZ43pe02csUVsov08d9iQqmfXmqw68QdoUs8zR0VHefPNNXnrpJUZGRmwvPHCWs4SweIH6PCCEePW/Fw6uJ+1gs1FGvgOdfj191mIy/QKvpe3gNTWr3H5QeS367NKQSVvKdEy2Z/r6TTJwRzLVc53E3xnHfAvzTpc+QepbN/CbDNOSTKc/bGbRTREm65wuNc5MzTJQ3Une87sBy2WiB2j70wC33Wi2D33Gu/Xd8e+D1e0p2wq6fsG4OUrmqs+iTbNjk2x9V/NYRr3gDh6/6UN+bqkNqEcGdmek32dj3z+xMXKIz476EB1pYZEBLdXcToKF5ouZy3MKkGufovrOE3R3zefCwfXcWNHMg1vM6q01VbMnLmR80HWSjz/+mDNnzrBmzRpuuukmywv1dlK3IZlyAC7w2lNPwa9PEAnozmqp2w3JJ87QveACr6U9xZkBiOzdQfAD8GbXGSJR/jifPHiB8vt66dSWsee7r/Phr+HGX3Ty5ontUAEMvMGZxDN0p75B2q2dfAZGQa2Z7UbbM6bbsZhjiWfo3qIup6lGtyVi3HLjXaD2HS2LMs3DbTOvPLab86vzqMgY++s/XfoEz+mDfFM+qZWA3938ZlsEn/ct4JbV+mX7+bzfjyj16YXP+1l0091mQV0Jyq/0q093PcF7AFEbqFg9wOc3vkDF6nd55unPGDJ5H6xtT7/fCKLMX/jAuzzzW3j8pReYjxJgX2wa4LZVC7hwNJ+f/+lGfvPSHcxXX2OTUcCevyqPJ3uf4OelC6gw++H57KwWuH3822qL7nOeW/UdLP4k9nZS991kiz9+YubynIBLOllqJjt/YQicNZs98AZpD3Sy48QW0y/hgvsp77rfKS349re/zZo1a1ixYoXVZS6c64TdDxC8W3ke/+sTagZ+gTOfwvrX9/DgAoD5PFi+ByUod7LjxB5D0Ju/MIS6ml71WRw7UiP4rELL+tf3cEPDelgUBwsilO00GQd4vQBC4sq4Ny2ED8vvH3s/Bt6gZDfU7V7MHnXS+tfHB2Vzuh2LuXd3HDtOnOEp44xKt5vUXf088swLPGKWaS3NeIEKmnnlsZNEvbSBpYY5zSYBloEBzvvdwEr16VDvAEE3mqdtC7ht2wvcpg+G2+4w+YxvWwDoPuNs1Aqj/dja3vj96p2uPMzZfvj5Y4eVCX5385ttC1AyYnjkJ/p9N9PUFEFUxvjX/WTpE6SWbjAJupFbztA9vhU2fdHzf2Dp9VxnaWbUFt6sWUywJp03u7bY8YMpZgIPCrg2DLxB2q1Psej1M2owc77ly5dz7733Mm/ePJvLfXZWy/rXz/BUlPmcXjq16awstzQ9hJVG7dbVlLE+cQsMvMHZDZk8taCZ7bvTWbkFPqvRsihxLNxcONdp4YTZfB4sP8ODandK3YbX6d4SoWbf6v8dELnlDN2JOwg2P6qI3EBF5m5Sn97N9SZBVf9ClMN5k6BmFuhOVx7mrP8GoyC2gOtXW27HhaYPOetvKVtVM9lxJ8ysb8/ytgb4vG8BjzyTpwRxE6aZuMXXZpztr5r6F/Gzc5e4c6HlzhXTIxXhKTykD9eWZrarwXZ8kGPKfbjf+MY3uP/++0lLS5sw2CpZbBwhli4YGDjL2bgQbrC4Xidn9P2ETTu4d3c6K6PgQsMfYFGA0brjt//ZWS2LFs6HgTfYftCsh3DB/ZSf2E78p2fH+g6N/+8MkRuoyITnLJytVw7nTftv+fwzzvovMByuP9dkfmWBH8pR+gDvlZr2hw71ju+/NZ4XdP0CGHiXV0yuXLC+PcN+dbt5xdCZPsDnn0/wmgfe5ZldZgf6ut2kPnaY6595gafNgq1yZYdRf71dBuk5DT8ItDS+TDPH1O+I8Cwen+HqdjygHB4/MHaYPHYYPzWXLl1iy5Yt+PraOajSgJZqbQhZlpIbq31uETz1egjBty5GSVbGDhF1Z9Vs1rDu+Gz4hkVx7HlgMXtI582u+1FOtN3KFq1+iTh2nNij7DdqC29+dzE3ap4ymWfPUYEh67YkcgO/WZ3Pz0ubTQ6jLR7OR67gtl27SX0MiNrAk1G7jfpB/bjer5nnHnsCUDLNsfdLyT6vtzLqsk/AAt7b9QTvEcGTL90x4fbmX+/H2V1q33LUBioyABZw20/u5pmnnyBVv+EofddABFFRu9VtRfBkZgTPfaj8cKDbrZwwfGmDE/pUP2GnfxvP6Z8e/T3PrQqi+cVbx7oWbP54i5nMKUPsrIic7Pi0wjMoJ/jYbl9wVljqv50CK/23V6ILB9fzJNudklQI15oFXQpi+s0n4U7Ycqs9l5E188pjT5D62G7IdEKw1V+i9fSH3PKTKzzYqpf63fjO7TwnwdYjSYYrhBAuIhmuEEK4iARcIYRwEQm4QgjhIk65LOzixYvO2IwQQsxqTgm4E98QIIQQQroUhBDCRSTgCiGEi0jAFUIIF5GAK4QQLiIBVwghXMTzA66NoWQmZ5C3HlcG7/P3/z07HaupJ4QQVnl+wI3aQnfXGeVxNj9GbgAADwtJREFUYjtnH3C07qgZXRvv3JFAX98/0XfEh+fuOs5HzmqrEOKK5iEB18YgksZ6O6kzrxPqaAHyyCT2rFbr30Zez5NTa7gQQhh4SMBFGURy0Qm6u87w4a9hS8VYmcAL6qi2wQ90smP7/c4r4acO4ieFnoUQzuBBIz5YH0Ry/n176L4PdWyz9WA8isFkB5HsP8H6u/4PJU1JlgfxE0IIB3lOhmuPBXEkx2np7J14UZv6T7A+6jw/OHIP95iPSyiEEJM0uwLugJZqrdngeg4PIvkJO6PO84Mj/8RGGXtaCOFEHtSlYNmFg+u58Rf6ERPHBmCcrI+K1QH87vq9YSC/O3+bMHYiTQghJkmG2BFCCBeZXV0KQggxg0nAFUIIF5GAK4QQLiIBVwghXETGNBNCCBeRMc2EEMJFpEtBCCFcRAKuEEK4iARcIYRwEQm4QgjhIhJwhRDCRTws4OrHG5Nhb4QQnsejAu4XlSfIWuojw94IITyS5wTc/hP860/+F4ezr3d3S4QQYlI8JOAO8tavzvODI0n80N1NEUKISfKIAuRKV0IYfTICgxDCg3lAwB2k8d1LcLQN/9+0jU32/z1PyjA4QggP4oEjPnzCTv/Pie6T7gUhhGfxkD5cIYTwfB7QpWDu+2zs+767GyGEEA6TDFcIIVxEAq4QQriIBFwhhHARCbhCCOEiEnCFEMJFZBBJIYRwERlEUgghXES6FIQQwkUk4AohhItIwBVCCBeRgCuEEC4iAVcIIVzEA4vXOMMn7PRv4zn905+H0ZctBXGEENPrCs1wv8/Gvn+ir++f6OtLoOR0Gzt17m6TEGK285CA28z2tDd4bcdigjWLCdas57UBs/maxaQdvDCJbQ/x2dGruMHPSU0VQggrPCTgAtqnqF50gu6uM3z4a9hS0Ty17fWfYL3/7/H3b+Pj397KPRJwhRDTzIP6cNPJum8+APMXhsBZ43kRPNV1xrHN+d3Knr5bgUHeeryW9SSwZ7WvsxorhBDjeE6GO218ib7jKt45N+TuhgghZrlZEnCn0oerjAr8ZKxcpSCEmF4e1KXgRP0nWB91nnfUpzLcuhDCFTxwmHQhhPBMs6RLQQghZj4JuEII4SIScIUQwkUk4AohhIvImGZCCOEiMqaZEEK4iHQpCCGEi0jAFUIIF5GAK4QQLiIBVwghXEQCrhBCuIhbA+6BAwd49913HV5viuUfXGPgDdI0i9ne5O6GuNnAuzzz2BO8IkMYOVfL6+Q/u4d3+t3dEOEItwXcAwcO8Kc//YnFixc7vO5XX33Fb3/7WwYGBiZeWE8NgMH6R9obTKaYo2PiCAmY9p2gL085fugh2+u88tgTpD72BKmP5fPehOs188pjuzltbbYaWJXtmS+3gOuvN1tet5vUUkujdgzw3lZ72mPd6dIneOboFDYwnfrf4/lnX8fe8UoGju8h/9lC5fHqx2Zz5+Hn5JFKBo7vGduP4W9mB/J76SSjU/ThR60Or7N///7RjRs3jp45c2ZS+/zyyy9HN27cOLpp06bRP/7xj3at88Ubj40ufFanfzb66qOLRh9944tJ7X9mUV7Lv520vsSpFzJGf/eR8ZT+0ZqnzadNoP+d0W1PvzNq+R3Tjf4u/VejNf32b+6LI78a3XbE0gq60d+lvzh6yoGmmeofrXl6rC3jX7ubNb82+qvft9m/7G9rRh14W6dM9/vfjO5tNp320bO2v1/Cfi6vh6vPbH/605+yaNEiAEpLSwHIyMhwaFujo6O8+eabfPrpp9x77714eXlZXfazs1riF21Xn81n8XehGlCyw2pWvg73PlAGQPyvT1CuDudz4eB6bvyFVlktbjsflt/P/KYdpJ0LYdEvnmJP3HZ2fPcptuyOY8eJPTy4oJntmgfYY7YdxQVeS7uVLermDNsDJZu49SnqlBnqtux5F3rp1KazstzSPCUrPb86j6eN6/0ONPN+fwT3mkx7l2ee/ox7X9rAUlAy0A9XUJERobS86UPO+t+N8asx0J3kPb8b+Y1Je5V9vwcsWp3H06uMZw7Q9qcBgu6x8AJ1J3nP7wZWWtzPblJ36XPDCJ7Ut9VoX4Z56qaXZmyg6bEneCXzBR4ZV/NY+ax4/QxPRVnaoZmW18k/4c3jmbexACUbfI0UNiUN8rtnT/ODO+Dwuz0A/GPUP7Mp6Trl1R7fw4tNY3dj/mNU3FgLXi3kcLf6JDiZvB//YGxeRw//uDgOk3ep/z2er2jmSyD4jhz+OVw/42ObbaDldfLV6RDI3b98AOWT/YJ3dv2Ok4bmzWPF/zZ9j47tTmflFjveHzEhlwdcfVC89tprDdMuXJjawf3HH3/MmTNnWLNmDTfddJOFJS5w5tM4klPVcNG0g3t3p/Nm13wY0HKWMu6teZ3uri3QtIPgml5gvhJs37mdD7v2MB/Q7VjMnqb7WX+uk7pfdJJ84nXW3/oA1Xee4M0NT3EGuHDwLCu7zrD+4HpuPKtsx9CKg09RfecJusvNwtbAG6Q9Bc91nWE+SpB/suECD95nMbyZaqpmT1wI682n63aTuqufR555gUf0f7ED7/LM04cNw8E999gTANyW+QKP8Blno1aoAQwufN7PooCx49Wh3gFuuzHCwj70AbCZnz92GFjAI8/kEdY0QNRLL7DyaD4/7+0Hk7DRz+f9EURZKPp+4fN+Ft1kIbDrfwBe2gAo3QZNOlgaqQRbMl+gIlJ9jb8FH8OKETzyzN0883Q+7z2Tx20mcf8sZ4FF45th0cCFiyYBsH/4Il5LrgMGgR4On4jg8V8+wIKW18nvGASuU4LtGQ2P/1IJ0s2vFvLxfCUINr9ayMdLcsj7MegDZjM/AOMg3P078puAeRE8nnkb/e3w4C9z6H+1kPoLXwDXGbXQchtoeZ38jqXk/fKBsf22QES4EmzPLP5n8pKuM7TBpJti4Cxn40K4wc73SNjm8oB7xx13AJCfn09eXh7XXnst//qv/zqlbX77299mzZo1rFixwsoSvXRqtey5dTHKD3U6b3ZtIRKgt5O6uO18uEUNJlFb6I4CaGbPL0J4s+t+wx//DYviOHtO/XHYkMmDnCUtbjvP3dfLHk0IK7fA/PuU5XVntaxP3GPSivkLQ6h74Fa2LzTNqHQVT1GnhRs1TykT4rbzoXlQNqfPiDe8Tne5aSA8XfoEz/XdzW9e2mAauBbcwdMv3cGFo/m8yOMmWeeFo+MDbNCNhkjN530W+mEjN1Dxkhr8bjTLIFfdwXzgtKVAPTDAeStZrOl+DSvw3lvN0N9M6mPqpKgNSoDVneQ9/f9RMnFuenz8634Gnnk6H4yD7oL7Ke+630IrLBsLsABf0P9f8/DxBfq/YIR5rLhHzXwvXOQfvX2BL9CdwTAdPubj7kB+8GOg/z3qu+HL7kLy1fPGwXfkKFnnj3OI0GeshkxUbXLSbcp2/2sei/+3UbC10YZ3TvTAxR7yn61Wd5RMXjjQ/zFniOBBQxZ8mu7gpfyzyXt3P8/duZ4bNX9w4KhLWOOWIXYsBd3JWr58Offee6/teg4DZzlrfPhu5MK5TuLvTB+fUY37Zb9A7TuQvH0+n1XAjtQILjTsgju3M39AO27ZM5/GEZJqts2oLXR3bUG3YzHBD+i7DZRlHf4yL7if8q44Xkt7itcGTNddmvECT5Y+wc9LFxi6BIxemMXDeZNAN/AubzYt4JbV+lWaeb/fj3sttq+ZpqYFXL/a0jzLgdp694S1bSkZ8VgXgtG2TDJxy6/twtF8fl7px5Mv5Y1b335GARagRcvJi/O42w9oGebL4Ju5U23GWGD+mKGL8/iBvnktp+me583tAIPDfGnWhWDCeNlxBk23a9ietTYYdyGYrXPtUkPG3vz/t3c/oW3WcRzH3/biRZizdMtTdZotE3romNJVGB42D2sDEpTZeqqUjpZ297EgHSMI7aa96MF1kUIxF9EWJYg1uGkO3jaag4cW2qy41iY0bFLooe4yD78nz54uT5bVhudh7ed1Cs//hodvv7/v70t+83d5sfHUlkNKU/1cZISlO08x2pKaAutSiEajdHZ2srCwzeXNbQ0NDXR1ddHX11f7x3NW8vz+RsSz/ri8mCXyepWXKZtn2f5YmvqEOGd4N5Tjl+QRjoZc51Zcf4V81hxTmrpS0TnwVnyB6YEs+RXnRq7P9dEyeI2LeHUCeA3n3YExR2o4zSIWze64Zb1qD9NzpNzXLBb5y2rnmGcwLrBaMNcp/ZTc0nngBMnZ5GMtY+X7Frk5PuPqJCmwWqPxYG48QWpLm1SRm5eGuLASY7IiWG934VET5CwLU0eduQv7GrFwZ5NQEZidx7fPcbu/RrU/yZQvWvH+Wtf4x7537lvT8fDkZ1inUKN9rPjr14/KGA47yXhHwbZeAl1Espzpbtfm5ibxeJyDBx9/q73N3pjgdOScx54qmSiYodRn/bQfttvWyhly8Xs7my3xm31u6Y88pyPu/q9XOHJqgrOHJ2DgO5Y+xNSG7Uk5wGxvA2jio5ER+k4eJezeF6/IRyoVs2Q4w9UqmXHL4GV6LiVIzbqG+57D+RDH3oYLw0OkCNFzPkbkB1cdNBTitULSrtGaTNOxusziyye8J9OwaLZyplbcNsDke2ZrU7PF4lcJen/EbB/0ON6uBZvrvknP+Vv0Dg+Rso8sT8Q1tbXDsLlW5P0Bev5OQzOU28tWP7jmlBt2ppXWcIb06BhpDhGLHiI9f4AQa/y8sM7+k+XhvTv7rHYOcLyb2PwY10fL/7z2caK33yND9fpaD7B/PcP10ZyZGKvxDB9H50hMjnHL3utMph1vITyTMaWGcAexcMapLxsmcehUGaFutIjks+z2FcI3Op4uONu86rc74Vm/lR3yrt/67n+8X/Jke3OZ9N2irYP+7m7Cydo1YFPHLIIV4/NPdx5s58aHuHqbR5NXUgd/8s1ohiVcE2hBcFoUzzF9R8G2npThioj4RD9eIyLiEwVcERGfaBFJERGfaBFJERGfqKQgIuITBVwREZ8o4IqI+EQBV0TEJwq4IiI+CSTg3tt4yOXpf7m38QwsBikiUieBBNzGF54D4MvMAwVdEdkzAispJM4+DyjoisjeEWgNV0FXRPaSwCfNXrLLC+Uyg4jIbhVowP0i84D7Gw+dTFdEZDf7D2JeVjiTjaNLAAAAAElFTkSuQmCC;" vertex="1" parent="1">
                    <mxGeometry x="460" y="50" width="303.43" height="320" as="geometry"/>
                </mxCell>
            </root>
        </mxGraphModel>
    </diagram>
</mxfile>